<svg xmlns="http://www.w3.org/2000/svg" width="756" height="756" viewBox="0 0 230.7 230.7" shape-rendering="geometricPrecision" image-rendering="optimizeQuality" fill-rule="evenodd" xmlns:v="https://vecta.io/nano"><path d="M223.64 223.7l-52.38-19.07c-16.54 10.45-36.12 16.51-57.13 16.51C55 221.14 7.07 173.2 7.07 114.07S55 7.01 114.13 7.01 221.2 54.94 221.2 114.07c0 21.08-6.09 40.73-16.61 57.29l19.05 52.34h0z" stroke="#206eb5" stroke-width="9.01" stroke-linejoin="round" stroke-miterlimit="22.9256" fill="#cdeafb"/><path d="M135.02 55.51c-5.63-.68-11.45-1.38-19.64-1h0 0c.3 2.04 1.33 4.22 3.15 6.37h0c5.49-2.35 11.03-4.17 16.49-5.37zm9.22-6.54c-3.79 2.03-7.33 4.93-9.22 6.54.44-4.18.62-7.57.58-10.18h0c3.03.78 6 2.03 8.64 3.64zm1.08.69c1.75 1.18 3.32 2.53 4.62 4.01 1.19 1.37 2.07 2.75 2.64 4.1h0 0c-6.79-1.69-12.27-1.98-17.56-2.26 2.44-1.73 6.26-4.21 10.3-5.85zm-10.3 5.85c6.42.42 12.41 1.5 17.89 3.14h0 0c.7 2.1.64 4.11-.12 5.85h0 0c-6.88-4.4-12.41-6.73-17.77-8.99zm14.58 16.52c2.7-1.09 4.64-2.72 5.76-4.69a94.8 94.8 0 0 1 12.07 10.89h0c-1.85 3.24-5.05 5.93-9.5 7.73h0c-2.45-4.85-5.24-9.52-8.33-13.93zm-2.06-2.83c-3.77-5.01-7.96-9.62-12.52-13.69a97.86 97.86 0 0 1 17.41 9.7h0c-.95 1.67-2.6 3.06-4.89 3.99zm-1.83-20.97c-3.09-1.89-6.59-3.36-10.16-4.28-.11-2-.38-3.43-.79-4.31h0c5.87 1.53 11.63 3.93 16.73 7.05-1.81.01-3.8.62-5.78 1.54zm6.81-1.49c-5.51-3.35-11.72-5.95-18.06-7.6-.19-.25-.41-.45-.65-.53 7.43 1.93 14.42 4.92 20.81 8.81-.65-.36-1.36-.58-2.1-.68zm1.06 1.28c3.4 2.29 6.47 4.93 9 7.82 2.75 3.37 3.38 4.26 5.13 7.94h0c-3.66-2.11-7.73-3.86-12.18-5.2h0c-.67-1.59-1.7-3.21-3.11-4.81h0c-1.53-1.75-3.38-3.34-5.44-4.73 2.25-.76 4.51-1.19 6.6-1.02zm1.19.17c.96.19 1.87.53 2.71 1.05 12.33 8.26 22.18 19.93 28.18 33.68-1.29-2.85-2.94-5.53-4.89-8.02-1.52-3.57-3.79-7.22-6.82-10.84l-1.14-1.33h0c-.29-.34-.6-.66-.91-.98 3.27 3.74 5.68 7.52 7.25 11.22h0c-2.58-2.9-5.63-5.51-9.11-7.77-1.2-2.83-3.04-5.71-5.54-8.57-6.19-6.61-9.7-8.43-9.73-8.44zm-43 6.56c.34 2.4 1.56 4.96 3.7 7.5-4.69 2.17-9.32 4.72-13.84 7.57h0c-3.53-4.17-5.54-8.4-6.11-12.36 5.28-1.33 10.72-2.24 16.25-2.71zm-19.66 3.63c.62 4.27 2.78 8.84 6.59 13.35h0c-4.46 2.98-8.79 6.26-12.92 9.78h0c-4.98-5.9-7.81-11.88-8.62-17.47 4.74-2.26 9.75-4.16 14.95-5.66zM61.18 73.82c3.96-3.07 8.3-5.84 12.92-8.25h0c.85 5.85 3.81 12.1 9.02 18.26-4.03 3.62-7.83 7.45-11.35 11.44h0c-6.12-7.24-9.6-14.58-10.59-21.45zm-2.54 2.05c1.02 7.06 4.59 14.59 10.88 22.03-3.39 4.06-6.47 8.26-9.16 12.54-6.87-8.13-10.78-16.37-11.89-24.08 2.95-3.77 6.37-7.28 10.17-10.49zm-22.1 41.24c.17-4.28.94-8.64 2.36-13.03 1.17 8.04 5.24 16.64 12.4 25.12l.01-.03-.01.03c-1.44 4.34-2.34 8.45-2.72 12.3-6.95-8.24-10.9-16.58-12.04-24.39zm3.38-15.88c1.69-4.35 3.95-8.49 6.69-12.37 1.13 7.81 5.08 16.15 12.04 24.39h0c-2.53 4.31-4.66 8.7-6.33 13.09-7.17-8.48-11.24-17.07-12.4-25.11zm-3.4 18.66c1.12 7.71 5.02 15.95 11.89 24.07h0c-.15 3.73.2 7.18 1.02 10.31-4.69-5.55-7.87-11.16-9.61-16.58l1.02 2.98.63 1.66c1.79 4.59 4.63 9.28 8.57 13.94h0 0c.97 2.84 2.35 5.38 4.12 7.6-9.18-11.04-15.36-24.64-17.32-39.58-.18-1.45-.28-2.92-.32-4.4zm-.26-5.71C35.03 97.48 42.4 79.8 51.69 67.4c-3.86 5.32-5.7 11.54-5.39 18.24h0 0c-2.75 3.83-5.01 7.93-6.7 12.27-.2-4.3.33-8.55 1.82-12.37-2.1 5.9-2.79 8.79-2.84 15.23h0 0c-1.42 4.39-2.16 9.08-2.32 13.41zm28.55-59.67c-4.56 5.2-6.77 11.55-6.45 18.46h0 0c-3.81 3.09-7.24 6.51-10.2 10.22-.32-7.04 1.75-13.55 6.07-19 3.22-3.81 6.39-6.88 10.58-9.68zM60.9 70.99c-.31-6.73 1.84-12.91 6.28-17.97l-.03.02.03-.02h0c3.72-2.19 7.75-3.92 12.04-5.17-3.78 4.31-5.61 9.58-5.35 15.31h0a81.53 81.53 0 0 0-12.97 7.83zm34.95-25.56c-2.77 3.15-4.1 7-3.91 11.19h0a92.62 92.62 0 0 0-15 5.12c-.26-5.48 1.49-10.52 5.11-14.64 4.39-1.05 9.02-1.61 13.8-1.67zm-.49 10.4c-.17-3.88 1.06-7.45 3.62-10.37 4.85.16 9.84.83 14.89 2.02-1.56 1.77-2.31 3.93-2.2 6.28-5.55.24-11.01.94-16.31 2.07zm39.66-.32c-6.55-1.38-13.13-1.75-19.72-1.84-.09-2 .54-3.84 1.86-5.34h0c5.93 1.66 11.93 4.04 17.86 7.18zm0 0c-5.19 1.5-10.46 3.63-15.7 6.26h0c1.99 2.09 4.52 3.88 7.31 5.29 2.91-4.32 5.73-8.22 8.39-11.55zm-2.37 74.66c-.95 5.3-2.05 10.51-3.28 15.55-11.48-1.53-23.13-4.91-33.94-9.81l6.17-14.71c9.89 4.48 20.56 7.57 31.05 8.97zm-9.36 35.82c-1.58 4.28-3.19 8.03-4.81 11.24-11.62-1.55-23.43-4.98-34.37-9.94 1.01-3.39 2.27-7.23 3.78-11.53 11.27 5.11 23.43 8.64 35.4 10.23zM88.9 152.9c1.61-4.44 3.38-9.09 5.27-13.86 10.95 4.96 22.76 8.39 34.38 9.94-1.29 4.95-2.71 9.7-4.25 14.15-11.96-1.59-24.13-5.12-35.4-10.23zm20.84-49.74c8.2 3.72 17.04 6.28 25.75 7.44a291.02 291.02 0 0 1-2.23 16.1c-10.23-1.36-20.61-4.37-30.24-8.74l6.72-14.8h0zm8.4-17.31c6 2.71 12.46 4.59 18.82 5.43-.2 5.17-.58 10.47-1.1 15.82-8.33-1.1-16.79-3.56-24.63-7.11l6.91-14.14zm1.5-2.95l6.75-12.73h0a37.93 37.93 0 0 0 10.57 3.06c.21 4.68.24 9.61.11 14.71-5.89-.79-11.88-2.52-17.43-5.04zm17.15-12.68c-3.04-.41-6.12-1.3-8.98-2.6h0 0c2.53-4.5 4.95-8.58 7.21-12.11.85 4.42 1.43 9.38 1.77 14.71zm-24.22 116.32c-10.5-1.39-21.17-4.49-31.05-8.97.41-2.24 1.06-4.95 1.97-8.14h0c10.8 4.9 22.46 8.29 33.93 9.81h0c-1.62 2.98-3.25 5.41-4.85 7.3zm-7.16 4.75c-.6.12-.73.16-1.31.1-7.85-1.01-15.33-3.19-22.27-6.35-.26-.16-.45-.46-.59-.87 7.84 3.55 15.85 6.01 24.17 7.12zm-24.13-12.33c9.63 4.36 20.02 7.38 30.24 8.74h0c-1.59 1.65-3.16 2.76-4.68 3.31-8.7-1.16-17.55-3.73-25.75-7.45-.17-1.03-.11-2.57.19-4.6zM116.4 63.29c2.35 2.46 5.32 4.57 8.6 6.22-2.51 3.83-5.07 7.96-7.64 12.3-5.42-2.73-10.33-6.21-14.19-10.27 4.33-3.07 8.76-5.84 13.23-8.25zm-16.03 10.29c4.16 4.38 9.46 8.14 15.31 11.09a425.69 425.69 0 0 0-7.67 13.77c-7.66-3.85-14.59-8.77-20.04-14.5a149.85 149.85 0 0 1 12.4-10.36zm-14.96 12.8c5.7 5.99 12.95 11.14 20.95 15.17a480.01 480.01 0 0 0-7.3 14.52c-9.4-4.73-17.91-10.77-24.61-17.81 3.4-4.12 7.08-8.1 10.96-11.88zm-13.14 14.58c6.88 7.23 15.61 13.43 25.27 18.29-2.31 4.88-4.51 9.75-6.56 14.53-10.55-5.31-20.1-12.09-27.62-19.99 2.64-4.35 5.63-8.65 8.91-12.83h0zm-10.58 15.68c7.62 8 17.3 14.87 27.98 20.25-1.98 4.73-3.79 9.36-5.41 13.8-11-5.55-20.96-12.61-28.81-20.86 1.67-4.4 3.77-8.81 6.24-13.19zm-7.25 16.05c7.84 8.24 17.8 15.31 28.81 20.85h0c-1.51 4.3-2.72 8.17-3.65 11.6-10.68-5.38-20.36-12.25-27.97-20.25.43-3.78 1.36-7.86 2.81-12.2zm-1.73 26.56c6.7 7.04 15.21 13.08 24.61 17.82h0c-.13 2.1 0 3.74.4 4.88-8.01-4.03-15.26-9.17-20.96-15.17a20.31 20.31 0 0 0 .88 1l1.34 1.38c5.29 5.29 11.84 9.85 19.03 13.47h0c.24.36.68.77 1.01 1.06a78.27 78.27 0 0 1-22.29-16.88l.03-.03c-1.77-2.14-3.13-4.66-4.05-7.53zm-.53-1.91c-.72-3.02-.98-6.37-.76-10.03h0c7.52 7.91 17.07 14.69 27.62 20h0c-.81 3.23-1.34 6-1.59 8.31-9.65-4.85-18.39-11.06-25.27-18.28zm103.6-90.83c.89-2.06.96-4.42.14-6.89 4.54 1.57 8.7 3.55 12.44 5.87h0c1.34 4.08 1.23 7.97-.24 11.36h0c-3.71-3.72-7.84-7.2-12.34-10.34zm14.7 12.8c1.58-3.65 1.7-7.86.25-12.26 3.56 2.46 6.68 5.26 9.33 8.33h0c1.9 5.77 1.74 11.27-.34 16.06h0c-2.62-4.23-5.72-8.29-9.24-12.13zm17.48 31.11c2.58-5.95 2.81-12.79.52-19.95l-.21-.64c-.21-.65-.43-1.29-.68-1.92l.48 1.26a77.81 77.81 0 0 1 4.05 23.22c0-.12-.01-.24-.01-.36l-.02 4.72h0c-.13 3.64-.9 7.12-2.31 10.36h0c-.2 4.56-.99 9.09-2.42 13.51-.15.48-.32.96-.49 1.43-.17.48-.34.95-.53 1.42-.19.5-.36.99-.56 1.47 4.09-9.47 6.36-19.9 6.36-30.87l-.02-1.48c.04 4.07-.74 7.95-2.3 11.54h0c-.05-4.58-.69-9.17-1.86-13.71zm-.84-2.95c-1.41-4.51-3.34-8.95-5.76-13.25 2.18-5 2.34-10.76.36-16.79 2.43 3.19 4.39 6.65 5.81 10.32h0c2.33 7.08 2.14 13.84-.41 19.72zm-39.42 76.8a43.84 43.84 0 0 0 4.08-1.89c-2.45 1.34-4.97 2.56-7.56 3.65 1.19-.52 2.35-1.11 3.48-1.76zm2.02-1.25c3.04-2.02 5.83-4.57 8.32-7.62 5.91-2.4 10.69-5.6 14.27-9.39-4.64 5.19-9.96 9.75-15.83 13.55l-3.75 2.28c1-.57 1.98-1.16 2.95-1.77-1.82 1.1-3.81 2.08-5.96 2.95zm15.6-78.71a117.35 117.35 0 0 0-5.85-15.16c4.81-1.95 8.26-4.85 10.26-8.35 3.44 4 6.46 8.22 9.01 12.59h0c-2.61 4.58-7.13 8.37-13.42 10.92zm.99 3.37c6.57-2.66 11.3-6.63 14.03-11.42 2.35 4.43 4.22 8.99 5.58 13.6h0c-3.21 5.63-8.76 10.28-16.48 13.42-.65-5.19-1.71-10.42-3.13-15.6zm3.49 18.97c7.94-3.21 13.63-8 16.92-13.77 1.13 4.63 1.73 9.3 1.76 13.94h0 0c-3.6 6.31-9.83 11.54-18.5 15.05.37-4.95.3-10.05-.18-15.22zm-.12 18.43c8.78-3.56 15.09-8.86 18.73-15.25-.22 4.61-1.02 9.17-2.45 13.59h0l-.01.02.01-.02c-3.76 6.58-10.25 12.04-19.3 15.7 1.47-4.45 2.46-9.16 3.02-14.04zm-4.03 16.9c9.04-3.67 15.53-9.12 19.29-15.7-.79 2.03-1.68 3.96-2.69 5.81-1.88 3.36-4 6.56-6.33 9.58l-2.16 2.67c.64-.76 1.26-1.52 1.87-2.3-3.75 4.63-9.12 8.49-16.02 11.29 2.36-3.28 4.39-7.07 6.04-11.35zM61.72 56.37c2.73-2.48 5.64-4.78 8.71-6.86a32.54 32.54 0 0 0-3.58 2.9l-5.13 3.96zm7.45-5.4c1.86-1.74 4.02-3.31 6.48-4.7a70.32 70.32 0 0 0-3.98 2.42l4.09-2.49c7.46-4.22 15.67-7.26 24.4-8.84.42-.06.87-.1 1.28-.15-1.46.17-2.93.48-4.35.82-6.88 1.65-12.31 4.45-16.18 8.07l-11.74 4.87zm35.54-14.29a77.48 77.48 0 0 1 9.45-.57c5.69 0 11.24.61 16.58 1.77.38.1.74.33 1.07.63-6.37-1.38-12.8-1.79-18.7-1.02h0c-2.73-.79-5.57-1.11-8.4-.81zm10.27 1.43c5.46-.71 11.42-.34 17.32.94h0 0c.72.95 1.32 2.46 1.76 4.54-3.58-.77-7.19-1-10.5-.57h0 0c-2.84-2.21-5.72-3.84-8.58-4.91zm20.04 17.4c-3.09-4.45-6.32-8.1-9.62-10.97 2.82-.37 5.89-.17 8.93.48h0 0c.45 2.72.69 6.21.69 10.49zm0 0c-5.73-3.35-11.53-5.94-17.27-7.79 1.35-1.26 3.25-2.24 5.65-2.82l.85-.18c3.66 2.81 7.28 6.4 10.77 10.79zM121.2 43.45c-2.83.68-5.05 1.83-6.64 3.31-4.89-1.35-9.73-2.17-14.43-2.48 2.62-2.45 6.29-4.35 10.95-5.46a39.94 39.94 0 0 1 1.65-.36c3.14 1.03 6.32 2.62 9.47 4.77 0 .03-.91.2-1 .22zm-10.52-5.57c-.6.11-1.19.24-1.78.38-5.02 1.2-8.99 3.25-11.82 5.9h0c-4.64-.08-9.14.35-13.41 1.27 3.7-3.46 8.89-6.15 15.47-7.72a43.72 43.72 0 0 1 2.33-.5l9.21.67zm18.01 152.8c-5.75 1.09-11.91 1.28-18.23.73 1.75-.53 3.53-1.61 5.3-3.24h0c8.52.75 16.82.31 24.38-1.5a60.01 60.01 0 0 0 4.22-1.18c-1.77 1.03-3.6 1.89-5.5 2.55a77.03 77.03 0 0 1-10.17 2.64zm17.6-6.41a58.21 58.21 0 0 1-4.34 1.22c-7.76 1.86-16.29 2.31-25.03 1.54 1.78-1.88 3.54-4.3 5.27-7.26h0c9.55.84 18.87.35 27.35-1.68 1.65-.4 3.23-.84 4.74-1.33-2.4 3.03-5.09 5.53-7.99 7.51zm9.52-9.56c-1.53.5-3.13.95-4.8 1.35-8.59 2.05-18.03 2.55-27.7 1.7 1.7-3.2 3.36-6.94 4.94-11.22h0c9.97.88 19.69.37 28.54-1.75a66.78 66.78 0 0 0 4.94-1.39c-1.64 4.28-3.63 8.06-5.92 11.31zm2-12.78c-8.85 2.12-18.58 2.63-28.54 1.75 1.53-4.45 2.9-9.21 4.1-14.17 9.68.85 19.12.35 27.71-1.71a59.91 59.91 0 0 0 4.8-1.34c-.62 4.91-1.66 9.63-3.13 14.08 0 .1-4.52 1.29-4.94 1.39zm3.68-17.37c-8.48 2.03-17.81 2.53-27.36 1.69 1.13-5.05 2.09-10.28 2.88-15.6h0c8.74.77 17.27.32 25.03-1.54 1.5-.36 2.94-.76 4.33-1.21.35 5.21.31 10.35-.14 15.33 0 .1-4.33 1.24-4.74 1.33zm.38-18.89c-7.56 1.81-15.86 2.25-24.37 1.5.71-5.35 1.25-10.77 1.6-16.17h0c7.25.64 14.33.27 20.76-1.28a44.82 44.82 0 0 0 3.6-1c1.24 5.24 2.13 10.53 2.63 15.77 0 .08-3.86 1.1-4.22 1.18zm-2.71-19.4c-6.15 1.47-12.92 1.83-19.85 1.22.28-5.38.38-10.72.29-15.91 5.3.46 10.46.19 15.17-.94.91-.22 1.78-.46 2.62-.73 2.07 5.01 3.82 10.17 5.21 15.39 0 .07-3.14.89-3.44.97zm-20.72-32.88c2.97.26 5.87.11 8.52-.52.51-.12 1-.26 1.47-.41a114.6 114.6 0 0 1 7.57 14.2c.02.05-2.23.64-2.43.69-4.36 1.04-9.15 1.29-14.05.86h0c-.17-5.13-.53-10.1-1.08-14.82zm-.39-3.03c-.74-5.38-1.75-10.38-3.03-14.85 4.22 4.2 8.07 8.93 11.53 14.05h0c-.41.13-.82.25-1.26.35-2.24.54-4.71.67-7.24.45zm-28.73 121.31c3.85.34 7.65.38 11.32.1-2.14.17-4.3.27-6.48.27-2.2 0-4.37-.1-6.52-.28a7.93 7.93 0 0 0 1.68-.09h0zm78.04-51.05c-.15.48-.32.96-.49 1.43-.17.48-.34.95-.53 1.42.29-.67 1.45-3.84 1.02-2.85zm-14.55-77.89L169.33 59l2.57 2.75c.31.32.62.64.91.98z" fill="#206eb5" fill-rule="nonzero"/></svg>