<?xml version="1.0" encoding="UTF-8"?>
<!DOCTYPE svg PUBLIC "-//W3C//DTD SVG 1.1//EN" "http://www.w3.org/Graphics/SVG/1.1/DTD/svg11.dtd">
<svg xmlns="http://www.w3.org/2000/svg" xml:space="preserve" width="2480px" height="2482px" version="1.1"
     style="shape-rendering:geometricPrecision; text-rendering:geometricPrecision; image-rendering:optimizeQuality; fill-rule:evenodd; clip-rule:evenodd"
     viewBox="0 0 1214.02 1214.67"
>
 <defs>
  <style type="text/css">
    .speech-bubble {stroke:white;stroke-width:48.51;stroke-linejoin:round;stroke-miterlimit:22.9256;fill:none}
    .globe {fill:white}
  </style>
 </defs>
 <g id="Layer_x0020_1">
  <path class="speech-bubble" d="M1189.76 1190.41l-281.89 -102.6c-88.97,56.24 -194.39,88.82 -307.43,88.82 -318.22,0 -576.19,-257.97 -576.19,-576.19 0,-318.22 257.97,-576.19 576.19,-576.19 318.22,0 576.19,257.97 576.19,576.19 0,113.41 -32.79,219.17 -89.38,308.32l102.51 281.64 0 0.01z"/>
  <g>
   <path class="globe" d="M712.86 285.27c-30.3,-3.64 -61.64,-7.39 -105.7,-5.38l0 0 0 0c1.59,10.99 7.15,22.72 16.93,34.3l0 0c29.56,-12.65 59.36,-22.47 88.77,-28.92zm49.59 -35.2c-20.38,10.95 -39.44,26.53 -49.59,35.2 2.34,-22.47 3.33,-40.7 3.1,-54.79l0 0c16.32,4.24 32.33,10.95 46.49,19.59zm5.81 3.73c9.42,6.35 17.88,13.6 24.88,21.6 6.43,7.34 11.15,14.76 14.23,22.02l0 0 -0.01 0c-36.56,-9.07 -66.02,-10.64 -94.5,-12.15 13.12,-9.28 33.68,-22.67 55.4,-31.47zm-55.4 31.47c34.53,2.3 66.76,8.08 96.29,16.89l0 0 0 0c3.73,11.32 3.42,22.12 -0.66,31.52l0 0 0 0c-37.02,-23.68 -66.81,-36.25 -95.63,-48.41zm78.45 88.92c14.53,-5.89 24.96,-14.65 30.99,-25.22 23.72,17.96 45.45,37.63 64.95,58.59l0 0c-9.95,17.44 -27.16,31.9 -51.12,41.61l0 0c-13.17,-26.11 -28.16,-51.27 -44.82,-74.98zm-11.09 -15.24c-20.29,-26.94 -42.82,-51.76 -67.36,-73.68 33.64,14.51 65,32.14 93.71,52.24l0 0c-5.13,8.99 -14,16.44 -26.35,21.44zm-9.83 -112.86c-16.66,-10.17 -35.49,-18.05 -54.67,-23.04 -0.58,-10.74 -2.03,-18.45 -4.29,-23.19l0 0c31.62,8.22 62.59,21.18 90.06,37.93 -9.77,0.08 -20.48,3.38 -31.1,8.3zm36.62 -7.98c-29.64,-18.07 -63.05,-32.05 -97.16,-40.91 -1.04,-1.38 -2.21,-2.42 -3.5,-2.87 39.97,10.37 77.61,26.49 112.01,47.42 -3.52,-1.95 -7.33,-3.13 -11.35,-3.64zm5.71 6.86c18.32,12.34 34.85,26.52 48.47,42.06 14.8,18.17 18.19,22.98 27.61,42.75l0 0c-19.69,-11.35 -41.63,-20.76 -65.56,-27.97l0 0c-3.62,-8.55 -9.18,-17.28 -16.74,-25.92l0 0c-8.24,-9.41 -18.2,-17.95 -29.29,-25.42 12.09,-4.08 24.28,-6.4 35.51,-5.5zm6.42 0.89c5.17,1.05 10.07,2.9 14.59,5.7 66.36,44.42 119.35,107.26 151.63,181.2 -6.92,-15.29 -15.81,-29.71 -26.32,-43.11 -8.16,-19.24 -20.35,-38.88 -36.7,-58.37l-6.12 -7.15 0 0c-1.58,-1.8 -3.21,-3.56 -4.9,-5.27 17.63,20.13 30.57,40.47 39.02,60.38l0 0c-13.9,-15.61 -30.32,-29.64 -49.03,-41.8 -6.45,-15.22 -16.34,-30.76 -29.81,-46.15 -33.32,-35.55 -52.2,-45.36 -52.36,-45.43zm-231.43 35.33c1.88,12.91 8.41,26.71 19.92,40.34 -25.21,11.7 -50.17,25.41 -74.49,40.77l0 0c-18.98,-22.47 -29.77,-45.23 -32.85,-66.54 28.38,-7.14 57.67,-12.07 87.42,-14.57zm-105.79 19.53c3.34,23 14.98,47.58 35.47,71.83l0 0c-24.01,16.07 -47.31,33.73 -69.5,52.65l0 0c-26.82,-31.74 -42.06,-63.91 -46.42,-94.01 25.52,-12.17 52.49,-22.4 80.45,-30.47zm-166.47 83.11c21.36,-16.55 44.7,-31.44 69.57,-44.44l0 0c4.57,31.49 20.51,65.13 48.55,98.32 -21.69,19.45 -42.19,40.08 -61.11,61.56l0 0c-32.93,-38.98 -51.65,-78.47 -57.01,-115.44zm-13.64 11.03c5.5,37.96 24.71,78.52 58.53,118.54 -18.22,21.84 -34.78,44.45 -49.3,67.5 -36.97,-43.75 -57.97,-88.08 -63.99,-129.58 15.88,-20.29 34.28,-39.19 54.76,-56.46zm-118.92 221.93c0.88,-23.02 5.03,-46.5 12.69,-70.11 6.27,43.28 28.18,89.52 66.73,135.15l0.04 -0.12 -0.04 0.12c-7.77,23.38 -12.58,45.51 -14.62,66.2 -37.44,-44.31 -58.71,-89.21 -64.8,-131.24zm18.16 -85.49c9.09,-23.39 21.24,-45.64 36,-66.54 6.1,42.03 27.37,86.92 64.81,131.23l0 0c-13.61,23.23 -25.1,46.83 -34.07,70.47 -38.56,-45.64 -60.46,-91.87 -66.74,-135.16zm-18.28 100.44c6.02,41.5 27.02,85.83 63.99,129.57l0 0c-0.84,20.05 1.05,38.61 5.49,55.47 -25.25,-29.89 -42.36,-60.08 -51.7,-89.26l5.47 16.06 3.37 8.94c9.64,24.68 24.94,49.95 46.11,75.01l0 0 0 0c5.24,15.26 12.65,28.95 22.2,40.9 -49.38,-59.39 -82.67,-132.62 -93.2,-213.01 -0.96,-7.82 -1.54,-15.72 -1.73,-23.68zm-1.41 -30.71c-6.63,-89.91 33.04,-185 83.02,-251.76 -20.77,28.6 -30.65,62.11 -28.99,98.18l0 0 0 0c-14.79,20.59 -26.95,42.66 -36.05,66.02 -1.07,-23.17 1.75,-46.05 9.78,-66.58 -11.31,31.75 -14.98,47.28 -15.26,81.96l0 0 0 0c-7.65,23.65 -11.65,48.86 -12.5,72.18zm153.65 -321.14c-24.56,28 -36.42,62.16 -34.7,99.34l0 0 -0.01 0c-20.53,16.67 -38.97,35.07 -54.89,55 -1.75,-37.88 9.4,-72.88 32.66,-102.25 17.31,-20.46 34.41,-37.01 56.94,-52.09zm-21.02 88.71c-1.67,-36.21 9.89,-69.47 33.8,-96.74l-0.2 0.12 0.2 -0.12 0 0c19.98,-11.78 41.7,-21.09 64.78,-27.83 -20.37,23.23 -30.22,51.56 -28.79,82.4l0 0c-24.96,12.14 -48.37,26.27 -69.79,42.17zm188.05 -137.56c-14.88,16.97 -22.07,37.67 -21.03,60.2l0 0c-28.07,7.02 -55.13,16.27 -80.74,27.55 -1.36,-29.49 8.05,-56.58 27.53,-78.79 23.63,-5.61 48.51,-8.63 74.24,-8.96zm-2.6 55.94c-0.96,-20.87 5.7,-40.04 19.48,-55.76 26.08,0.85 52.91,4.43 80.09,10.84 -8.36,9.53 -12.4,21.15 -11.81,33.8 -29.87,1.3 -59.27,5.07 -87.76,11.12zm213.42 -1.71c-35.27,-7.44 -70.69,-9.39 -106.14,-9.9 -0.49,-10.76 2.94,-20.64 10.04,-28.74l0 0c31.91,8.93 64.16,21.75 96.1,38.64zm0 0c-27.93,8.1 -56.29,19.52 -84.49,33.69l0 0c10.71,11.25 24.31,20.9 39.34,28.47 15.63,-23.26 30.82,-44.22 45.15,-62.16zm-12.75 401.81c-5.14,28.52 -11.04,56.58 -17.66,83.67 -61.76,-8.22 -124.5,-26.43 -182.66,-52.79 10.51,-25.97 21.66,-52.51 33.23,-79.18 53.2,24.12 110.6,40.78 167.09,48.3zm-50.4 192.78c-8.47,23.01 -17.13,43.18 -25.85,60.45 -62.55,-8.33 -126.09,-26.77 -184.99,-53.47 5.43,-18.22 12.2,-38.93 20.33,-62.05 60.65,27.5 126.1,46.49 190.51,55.07zm-185.03 -70.44c8.62,-23.9 18.14,-48.92 28.36,-74.61 58.9,26.69 122.44,45.14 184.99,53.46 -6.93,26.65 -14.56,52.22 -22.84,76.21 -64.41,-8.58 -129.86,-27.57 -190.51,-55.06zm112.12 -267.71c44.13,20 91.74,33.82 138.59,40.06 -3.2,28.9 -7.23,57.94 -12.03,86.65 -55.02,-7.33 -110.92,-23.55 -162.73,-47.04 11.75,-26.69 23.88,-53.4 36.17,-79.67l0 0zm45.24 -93.18c32.24,14.62 67.02,24.71 101.26,29.27 -1.11,27.78 -3.1,56.33 -5.94,85.14 -44.81,-5.96 -90.33,-19.17 -132.52,-38.3 12.35,-26.06 24.83,-51.58 37.2,-76.11zm8.04 -15.84c12.33,-24.08 24.5,-47.06 36.32,-68.49l0 0c18.11,8.21 37.64,13.88 56.87,16.44 1.15,25.18 1.33,51.73 0.62,79.16 -31.71,-4.22 -63.94,-13.57 -93.81,-27.11zm92.31 -68.26c-16.35,-2.17 -32.95,-6.99 -48.34,-13.97l0 0 0 0c13.6,-24.23 26.66,-46.2 38.81,-65.19 4.55,23.81 7.7,50.47 9.53,79.16zm-130.37 626.03c-56.49,-7.52 -113.89,-24.18 -167.09,-48.3 2.21,-12.03 5.73,-26.65 10.58,-43.79l0 0c58.16,26.36 120.9,44.57 182.65,52.79l0 0c-8.73,16.01 -17.49,29.12 -26.14,39.3zm-38.5 25.52c-3.22,0.67 -3.97,0.86 -7.07,0.56 -42.24,-5.44 -82.5,-17.18 -119.84,-34.2 -1.38,-0.86 -2.44,-2.45 -3.19,-4.66 42.19,19.13 85.3,32.34 130.1,38.3zm-129.85 -66.34c51.81,23.49 107.71,39.71 162.73,47.03l0 0c-8.59,8.9 -17.03,14.84 -25.18,17.81 -46.86,-6.24 -94.47,-20.06 -138.59,-40.06 -0.94,-5.59 -0.6,-13.88 1.04,-24.78zm189 -622.5c12.6,13.24 28.6,24.6 46.28,33.49 -13.52,20.63 -27.31,42.84 -41.16,66.19 -29.15,-14.68 -55.56,-33.42 -76.33,-55.26 23.28,-16.51 47.15,-31.43 71.21,-44.42zm-86.31 55.41c22.43,23.57 50.93,43.79 82.41,59.64 -13.85,23.82 -27.7,48.69 -41.3,74.15 -41.19,-20.74 -78.48,-47.21 -107.84,-78.06 21.34,-19.86 43.71,-38.55 66.73,-55.73zm-80.51 68.84c30.7,32.27 69.71,59.95 112.79,81.64 -13.49,25.7 -26.68,51.9 -39.34,78.16 -50.58,-25.47 -96.38,-57.97 -132.43,-95.86 18.31,-22.16 38.1,-43.59 58.98,-63.94zm-70.71 78.5c37.02,38.91 84.05,72.28 135.99,98.43 -12.42,26.26 -24.26,52.47 -35.27,78.19 -56.77,-28.58 -108.18,-65.06 -148.64,-107.58 14.17,-23.44 30.27,-46.57 47.92,-69.04l0 0zm-56.89 84.36c40.98,43.07 93.05,80.02 150.54,108.97 -10.64,25.49 -20.42,50.39 -29.08,74.26 -59.22,-29.82 -112.84,-67.86 -155.05,-112.22 8.95,-23.67 20.27,-47.45 33.59,-71.01zm-39.06 86.39c42.2,44.35 95.82,82.4 155.04,112.21l0 0c-8.08,23.14 -14.6,43.98 -19.6,62.4 -57.5,-28.95 -109.57,-65.89 -150.55,-108.96 2.32,-20.37 7.3,-42.32 15.11,-65.65zm-9.27 142.95c36.04,37.89 81.85,70.39 132.43,95.86l0 0c-0.74,11.33 -0.02,20.13 2.11,26.29 -43.07,-21.7 -82.08,-49.37 -112.78,-81.64 1.52,1.84 3.1,3.62 4.73,5.35l7.22 7.43c28.47,28.48 63.73,53.02 102.43,72.5l0 0c1.27,1.97 3.63,4.15 5.43,5.7 -45.33,-22.92 -85.93,-53.82 -119.97,-90.84l0.16 -0.14c-9.54,-11.52 -16.85,-25.08 -21.76,-40.51zm-2.87 -10.32c-3.86,-16.22 -5.3,-34.26 -4.12,-53.93l0 0c40.47,42.53 91.88,79 148.65,107.59l0 0c-4.34,17.38 -7.18,32.33 -8.55,44.76 -51.93,-26.15 -98.96,-59.52 -135.98,-98.42zm557.51 -488.81c4.81,-11.05 5.17,-23.77 0.78,-37.08 24.41,8.48 46.8,19.11 66.92,31.59l0 0c7.23,21.96 6.64,42.93 -1.29,61.17l0 0c-19.96,-20.05 -42.18,-38.75 -66.41,-55.68zm79.1 68.93c8.56,-19.68 9.2,-42.33 1.39,-66.03 19.12,13.26 35.93,28.32 50.18,44.87l0 0c10.22,31.03 9.37,60.66 -1.82,86.42l0 0c-14.12,-22.76 -30.78,-44.65 -49.75,-65.26zm94.08 167.4c13.93,-32.03 15.15,-68.82 2.82,-107.36l-1.12 -3.47c-1.14,-3.47 -2.35,-6.9 -3.66,-10.31 0.87,2.24 1.74,4.49 2.56,6.76 13.27,39.37 20.87,81.35 21.79,124.97 -0.01,-0.64 -0.02,-1.28 -0.04,-1.92l-0.12 25.37 0 0c-0.67,19.6 -4.85,38.32 -12.43,55.77l0 0c-1.08,24.56 -5.33,48.92 -13.01,72.69 -0.83,2.59 -1.71,5.16 -2.62,7.73 -0.92,2.57 -1.87,5.12 -2.85,7.65 -1.04,2.65 -1.95,5.29 -3.01,7.89 22,-50.94 34.2,-107.1 34.2,-166.12 0,-2.66 -0.05,-5.31 -0.1,-7.95 0.2,21.9 -3.97,42.78 -12.36,62.07l0 0c-0.3,-24.62 -3.73,-49.34 -10.05,-73.77zm-4.53 -15.89c-7.56,-24.28 -17.96,-48.18 -30.96,-71.29 11.71,-26.94 12.59,-57.93 1.91,-90.37 13.12,17.18 23.63,35.8 31.29,55.55l0 0.01c12.55,38.1 11.51,74.48 -2.24,106.1zm-212.1 413.33c7.71,-3.13 15.02,-6.54 21.92,-10.21 -13.14,7.26 -26.72,13.82 -40.67,19.66 6.4,-2.78 12.66,-5.96 18.75,-9.45zm10.85 -6.71c16.34,-10.91 31.37,-24.61 44.75,-41.06 31.83,-12.9 57.54,-30.1 76.82,-50.51 -24.97,27.93 -53.61,52.49 -85.18,72.93l-20.18 12.27c5.36,-3.06 10.64,-6.23 15.84,-9.52 -9.78,5.88 -20.48,11.19 -32.05,15.89zm83.97 -423.6c-8.55,-27.73 -19.09,-55.09 -31.47,-81.6 25.87,-10.49 44.44,-26.09 55.18,-44.91 18.52,21.51 34.77,44.22 48.51,67.73l0 0c-14.06,24.64 -38.37,45.06 -72.22,58.78zm5.29 18.14c35.41,-14.36 60.83,-35.71 75.53,-61.48 12.64,23.84 22.72,48.38 30.01,73.21l0 0c-17.26,30.26 -47.12,55.33 -88.69,72.18 -3.5,-27.91 -9.16,-56.04 -16.85,-83.91zm18.83 102.08c42.69,-17.31 73.34,-43.05 91.06,-74.11 6.06,24.93 9.28,50.07 9.43,75l0 0 0 0c-19.37,33.96 -52.88,62.1 -99.54,81.01 1.97,-26.65 1.61,-54.11 -0.95,-81.9zm-0.67 99.17c47.26,-19.16 81.2,-47.66 100.82,-82.06 -1.21,24.82 -5.54,49.33 -13.22,73.13l-0.01 0 -0.03 0.12 0.03 -0.12c-20.2,35.42 -55.15,64.77 -103.82,84.5 7.87,-23.95 13.23,-49.3 16.23,-75.57zm-21.71 90.95c48.67,-19.73 83.62,-49.09 103.82,-84.5 -4.26,10.93 -9.01,21.3 -14.48,31.3 -10.1,18.04 -21.5,35.26 -34.06,51.53l-11.61 14.37c3.43,-4.06 6.8,-8.17 10.07,-12.36 -20.2,24.89 -49.09,45.7 -86.2,60.74 12.65,-17.64 23.58,-38.03 32.46,-61.08zm-559.31 -568.33c14.71,-13.38 30.37,-25.72 46.87,-36.92 -6.97,4.89 -13.39,10.09 -19.26,15.58l-27.61 21.34zm40.1 -29.07c10,-9.35 21.64,-17.85 34.88,-25.33 -7.27,4.14 -14.4,8.49 -21.4,13.04l22.02 -13.39c40.11,-22.72 84.33,-39.05 131.26,-47.56 2.32,-0.34 4.74,-0.57 6.91,-0.81 -7.83,0.88 -15.74,2.55 -23.4,4.39 -37.03,8.87 -66.23,23.97 -87.08,43.46l-63.19 26.2zm191.25 -76.94c16.68,-2.01 33.65,-3.05 50.87,-3.05 30.63,0 60.5,3.29 89.26,9.53 2.04,0.56 3.95,1.76 5.75,3.4 -34.31,-7.44 -68.89,-9.61 -100.65,-5.5l0 0c-14.7,-4.23 -29.98,-5.97 -45.23,-4.38zm55.27 7.7c29.43,-3.81 61.46,-1.8 93.24,5.09l0 0 0 0.01c3.89,5.12 7.08,13.24 9.49,24.42 -19.27,-4.18 -38.69,-5.4 -56.53,-3.09l0 0 0 0c-15.28,-11.87 -30.77,-20.67 -46.2,-26.43zm107.88 93.65c-16.62,-23.94 -34.01,-43.59 -51.75,-59.04 15.16,-1.96 31.67,-0.93 48.05,2.62l0 0 0 0c2.4,14.61 3.68,33.39 3.7,56.42zm0 0c-30.85,-18.02 -62.04,-31.93 -92.93,-41.91 7.27,-6.79 17.46,-12.06 30.37,-15.16 1.51,-0.36 3.04,-0.68 4.58,-0.98 19.73,15.13 39.21,34.46 57.98,58.05zm-74.39 -64.89c-15.19,3.64 -27.18,9.83 -35.73,17.83 -26.33,-7.28 -52.35,-11.7 -77.67,-13.34 14.11,-13.19 33.88,-23.42 58.94,-29.42 2.93,-0.7 5.89,-1.33 8.88,-1.9 16.92,5.52 34.01,14.06 50.96,25.67 0,0.11 -4.91,1.04 -5.38,1.16zm-56.58 -30c-3.23,0.62 -6.43,1.3 -9.59,2.06 -27.05,6.48 -48.39,17.52 -63.61,31.75l-0.01 0c-24.98,-0.43 -49.18,1.88 -72.19,6.85 19.93,-18.63 47.85,-33.08 83.27,-41.56 4.12,-0.99 8.3,-1.88 12.53,-2.69l49.6 3.59zm96.88 822.35c-30.95,5.85 -64.08,6.9 -98.11,3.9 9.43,-2.82 19.01,-8.64 28.57,-17.43l0 0c45.8,4.04 90.5,1.68 131.17,-8.07 7.87,-1.88 15.45,-4.01 22.72,-6.36 -9.51,5.54 -19.4,10.18 -29.61,13.74 -17.75,5.92 -36.02,10.69 -54.74,14.22zm94.72 -34.51c-7.47,2.42 -15.25,4.61 -23.34,6.55 -41.76,10 -87.66,12.43 -134.69,8.28 9.55,-10.07 19.04,-23.1 28.33,-39.05l0 0c51.41,4.53 101.57,1.88 147.23,-9.06 8.84,-2.11 17.34,-4.5 25.51,-7.14 -12.96,16.29 -27.41,29.78 -43.04,40.42zm51.27 -51.45c-8.27,2.68 -16.88,5.09 -25.84,7.24 -46.23,11.07 -97.04,13.76 -149.11,9.17 9.18,-17.22 18.11,-37.35 26.62,-60.37l0 0c53.62,4.73 105.95,1.96 153.57,-9.44 9.23,-2.21 18.1,-4.7 26.61,-7.46 -8.84,23.04 -19.56,43.35 -31.85,60.86zm10.72 -68.78c-47.62,11.41 -99.95,14.18 -153.57,9.45 8.23,-24 15.6,-49.59 22.07,-76.29 52.06,4.59 102.88,1.9 149.11,-9.17 8.96,-2.15 17.57,-4.57 25.84,-7.24 -3.36,26.4 -8.93,51.83 -16.84,75.79 0,0.52 -24.33,6.91 -26.61,7.46zm19.82 -93.46c-45.65,10.93 -95.82,13.59 -147.23,9.05 6.07,-27.15 11.25,-55.29 15.48,-83.9l0 -0.01c47.03,4.15 92.93,1.72 134.69,-8.28 8.09,-1.94 15.87,-4.12 23.34,-6.54 1.85,28.05 1.63,55.72 -0.77,82.53 0,0.5 -23.32,6.62 -25.51,7.15zm2.06 -101.66c-40.68,9.74 -85.37,12.11 -131.18,8.07 3.84,-28.8 6.73,-57.98 8.65,-87.02l0 0c39.01,3.44 77.08,1.42 111.72,-6.87 6.71,-1.61 13.16,-3.42 19.35,-5.43 6.68,28.24 11.45,56.69 14.18,84.89 0,0.44 -20.77,5.9 -22.72,6.36zm-14.59 -104.44c-33.12,7.93 -69.52,9.86 -106.82,6.57 1.5,-28.96 2.03,-57.67 1.55,-85.63 28.5,2.52 56.31,1.04 81.62,-5.02 4.9,-1.17 9.62,-2.5 14.14,-3.96 11.14,26.96 20.52,54.74 28.02,82.85 0,0.37 -16.92,4.81 -18.51,5.19zm-111.53 -176.91c16.01,1.41 31.63,0.58 45.84,-2.82 2.76,-0.66 5.4,-1.4 7.94,-2.23 15.23,24.23 28.85,49.89 40.74,76.47 0.08,0.24 -12.02,3.41 -13.1,3.67 -23.44,5.62 -49.21,6.98 -75.61,4.65l0 0c-0.92,-27.61 -2.84,-54.36 -5.81,-79.74zm-2.07 -16.34c-4,-28.93 -9.42,-55.84 -16.31,-79.91 22.69,22.59 43.43,48.06 62.02,75.62l0 0c-2.16,0.7 -4.41,1.33 -6.75,1.89 -12.08,2.9 -25.36,3.6 -38.96,2.4zm-154.64 652.86c20.73,1.83 41.18,2.05 60.94,0.52 -11.5,0.95 -23.14,1.45 -34.89,1.45 -11.81,0 -23.5,-0.51 -35.06,-1.47 2.98,0.15 5.98,-0.01 9.01,-0.5l0 0zm420 -274.75c-0.83,2.59 -1.7,5.16 -2.62,7.73 -0.92,2.57 -1.87,5.12 -2.85,7.65 1.56,-3.61 7.78,-20.68 5.47,-15.38zm-78.31 -419.16c-5.61,-6.02 -12.94,-14.21 -18.74,-20.05l13.84 14.78c1.69,1.71 3.32,3.47 4.9,5.27z"/>
  </g>
 </g>
</svg>
