<?xml version="1.0" encoding="UTF-8"?>
<!DOCTYPE svg PUBLIC "-//W3C//DTD SVG 1.1//EN" "http://www.w3.org/Graphics/SVG/1.1/DTD/svg11.dtd">
<svg xmlns="http://www.w3.org/2000/svg" xml:space="preserve" width="381px" height="88px" version="1.1"
     style="shape-rendering:geometricPrecision; text-rendering:geometricPrecision; image-rendering:optimizeQuality; fill-rule:evenodd; clip-rule:evenodd"
     viewBox="0 0 548.431 126.434"
>
 <defs>
  <style type="text/css">
   <![CDATA[
    .str0 {stroke:white;stroke-width:2.836;stroke-linejoin:round;stroke-miterlimit:22.9256}
    .fil2 {fill:none}
    .fil3 {fill:#FEFEFE}
    .fil1 {fill:white;fill-rule:nonzero}
   ]]>
  </style>
 </defs>
 <g id="Layer_x0020_1">
  <path class="fil1" d="M206.693 48.268c-3.357,-1.424 -7.069,-2.949 -12.053,-2.949 -11.239,0 -18.664,8.035 -18.664,17.85 0,9.306 6.968,17.748 18.715,17.748 4.526,0 8.544,-1.068 12.714,-2.898l0 -13.986 -10.832 0 0 3.357 7.018 0 0 8.238c-1.221,0.458 -4.832,1.933 -9.256,1.933 -6.865,0 -14.29,-4.984 -14.29,-14.443 0,-7.985 6.001,-14.341 14.341,-14.341 1.322,0 6.713,0.102 12.307,3.56l0 -4.069z"/>
  <polygon id="1" class="fil1" points="216.05,45.776 212.541,45.776 212.541,80.459 216.05,80.459 "/>
  <path id="2" class="fil1" d="M232.069 57.168c-6.56,0 -11.849,5.289 -11.849,11.849 0,6.56 5.289,11.9 11.849,11.9 6.561,0 11.9,-5.34 11.9,-11.9 0,-6.56 -5.339,-11.849 -11.9,-11.849zm0.051 3.102c4.78,0 8.238,3.916 8.238,8.747 0,4.831 -3.458,8.798 -8.238,8.798 -4.78,0 -8.29,-3.967 -8.29,-8.798 0,-4.831 3.51,-8.747 8.29,-8.747z"/>
  <path id="3" class="fil1" d="M248.19 79.188c2.645,1.119 5.543,1.729 8.442,1.729 7.577,0 12.307,-4.933 12.307,-12.408 0,-5.849 -3.611,-11.341 -10.018,-11.341 -3.764,0 -6.103,2.034 -7.222,2.899l0 -14.291 -3.509 0 0 33.412zm3.509 -15.561c2.288,-2.492 4.831,-3.357 6.51,-3.357 3.966,0 7.119,3.661 7.119,8.544 0,5.187 -3.611,9.001 -8.391,9.001 -0.458,0 -2.644,0 -5.238,-0.915l0 -13.273z"/>
  <path id="4" class="fil1" d="M291.518 76.442c-1.373,1.119 -2.492,1.627 -2.949,1.627 -0.509,0 -0.611,-0.254 -0.611,-1.22l0 -12.562c0,-2.568 -1.22,-7.119 -7.729,-7.119 -3.713,0 -6.306,1.831 -7.425,2.797l0 3.61c1.983,-1.805 4.119,-3.305 7.119,-3.305 4.272,0 4.527,2.899 4.527,4.373l0 2.043c-9.459,1.687 -12.511,4.696 -12.511,8.425 0,3.365 2.696,5.806 5.899,5.806 2.035,0 3.814,-0.458 6.662,-2.593 0.204,1.068 0.611,2.593 2.492,2.593 0.61,0 1.678,-0.051 4.526,-2.085l0 -2.39zm-7.068 -0.517c-0.865,0.822 -2.696,2.449 -5.137,2.449 -1.322,0 -3.865,-0.762 -3.865,-3.517 0,-2.865 3.153,-4.797 9.002,-5.874l0 6.942z"/>
  <polygon id="5" class="fil1" points="297.621,45.776 294.112,45.776 294.112,80.459 297.621,80.459 "/>
  <path id="6" class="fil1" d="M331.236 47.607c-1.373,-0.814 -3.967,-2.288 -7.832,-2.288 -5.797,0 -10.273,3.763 -10.273,9.204 0,3.866 2.136,6.764 7.985,9.51 7.119,3.357 7.78,5.442 7.78,7.628 0,2.086 -1.576,5.798 -6.458,5.798 -3.865,0 -7.171,-2.543 -9.001,-4.374l0 4.679c2.695,1.882 5.848,3.153 9.103,3.153 4.526,0 10.12,-2.949 10.12,-9.51 0,-5.136 -2.441,-7.12 -9.205,-10.476 -3.051,-1.526 -6.56,-3.306 -6.56,-6.814 0,-1.272 0.966,-5.34 6.458,-5.34 3.509,0 6.306,1.983 7.883,3.153l0 -4.323z"/>
  <polygon id="7" class="fil1" points="354.476,57.625 350.662,57.625 343.797,72.017 336.524,57.625 332.71,57.625 341.966,75.781 334.083,92.156 337.847,92.156 "/>
  <path id="8" class="fil1" d="M360.121 57.625l-3.509 0 0 22.834 3.509 0 0 -16.273c1.525,-2.136 3.305,-3.916 6.102,-3.916 3.611,0 5.238,2.39 5.238,6.611l0 13.578 3.509 0 0 -16.07c1.679,-2.848 4.323,-4.119 6.408,-4.119 4.119,0 4.933,3.916 4.933,6.509l0 13.68 3.509 0 0 -13.68c0,-3.916 -1.424,-9.611 -7.831,-9.611 -1.882,0 -4.781,0.559 -7.782,4.78 -0.661,-1.525 -2.644,-4.78 -6.967,-4.78 -3.152,0 -5.034,1.525 -7.119,3.967l0 -3.51z"/>
  <path id="9" class="fil1" d="M394.702 79.188c2.644,1.119 5.543,1.729 8.442,1.729 7.577,0 12.307,-4.933 12.307,-12.408 0,-5.849 -3.611,-11.341 -10.019,-11.341 -3.763,0 -6.102,2.034 -7.221,2.899l0 -14.291 -3.509 0 0 33.412zm3.509 -15.561c2.288,-2.492 4.831,-3.357 6.509,-3.357 3.967,0 7.12,3.661 7.12,8.544 0,5.187 -3.611,9.001 -8.391,9.001 -0.458,0 -2.645,0 -5.238,-0.915l0 -13.273z"/>
  <path id="10" class="fil1" d="M430.3 57.168c-6.56,0 -11.849,5.289 -11.849,11.849 0,6.56 5.289,11.9 11.849,11.9 6.561,0 11.9,-5.34 11.9,-11.9 0,-6.56 -5.339,-11.849 -11.9,-11.849zm0.051 3.102c4.78,0 8.238,3.916 8.238,8.747 0,4.831 -3.458,8.798 -8.238,8.798 -4.78,0 -8.29,-3.967 -8.29,-8.798 0,-4.831 3.51,-8.747 8.29,-8.747z"/>
  <polygon id="11" class="fil1" points="449.93,45.776 446.421,45.776 446.421,80.459 449.93,80.459 "/>
  <path id="12" class="fil1" d="M468.187 59.101c-1.17,-0.662 -3.356,-1.933 -6.509,-1.933 -5.035,0 -7.324,3.357 -7.324,6.153 0,3.814 3.204,5.442 6.001,6.764 3.001,1.424 5.086,2.492 5.086,4.679 0,1.932 -2.085,3.051 -3.865,3.051 -1.221,0 -3.611,-0.305 -7.374,-2.594l0 3.611c2.39,1.271 4.628,2.085 7.323,2.085 5.696,0 7.526,-4.119 7.526,-6.408 0,-3.559 -2.949,-5.187 -4.17,-5.848 -5.441,-2.848 -7.017,-3.61 -7.017,-5.442 0,-1.576 1.525,-2.949 3.864,-2.949 2.238,0 4.221,0.966 6.459,2.339l0 -3.508z"/>
  <g id="_2301129664320">
   <path class="fil2 str0" d="M147.53 97.31l-16.483 -5.999c-5.202,3.289 -11.366,5.194 -17.976,5.194 -18.606,0 -33.69,-15.084 -33.69,-33.691 0,-18.607 15.084,-33.691 33.69,-33.691 18.608,0 33.691,15.084 33.691,33.691 0,6.632 -1.917,12.815 -5.226,18.028l5.995 16.468 -0.001 0z"/>
   <g>
    <path class="fil3" d="M119.645 44.385c-1.772,-0.212 -3.604,-0.432 -6.181,-0.314l0 0 0 0c0.093,0.642 0.418,1.328 0.99,2.005l0 0c1.729,-0.739 3.472,-1.313 5.191,-1.691zm2.9 -2.057c-1.192,0.639 -2.306,1.55 -2.9,2.057 0.137,-1.313 0.195,-2.38 0.181,-3.203l0 0c0.954,0.247 1.891,0.64 2.719,1.146zm0.34 0.217c0.55,0.372 1.045,0.796 1.454,1.263 0.376,0.43 0.652,0.863 0.832,1.288l0 0 0 0c-2.138,-0.531 -3.861,-0.622 -5.526,-0.711 0.767,-0.543 1.969,-1.325 3.24,-1.84zm-3.24 1.84c2.019,0.135 3.904,0.473 5.63,0.988l0 0 0 0c0.218,0.661 0.2,1.293 -0.038,1.843l0 0 0 0c-2.165,-1.385 -3.907,-2.12 -5.592,-2.831zm4.587 5.2c0.85,-0.344 1.46,-0.857 1.812,-1.475 1.387,1.05 2.658,2.2 3.798,3.426l0 0c-0.582,1.02 -1.588,1.865 -2.989,2.433l0 0c-0.771,-1.527 -1.647,-2.998 -2.621,-4.384zm-0.648 -0.891c-1.187,-1.575 -2.504,-3.027 -3.939,-4.309 1.967,0.849 3.801,1.88 5.479,3.055l0 0c-0.3,0.525 -0.818,0.961 -1.54,1.254zm-0.575 -6.599c-0.974,-0.595 -2.075,-1.056 -3.197,-1.348 -0.033,-0.628 -0.119,-1.078 -0.251,-1.356l0 0c1.849,0.481 3.66,1.239 5.266,2.218 -0.571,0.005 -1.197,0.198 -1.818,0.486zm2.141 -0.467c-1.733,-1.056 -3.686,-1.874 -5.681,-2.392 -0.061,-0.081 -0.129,-0.141 -0.204,-0.168 2.336,0.607 4.537,1.549 6.549,2.772 -0.206,-0.113 -0.429,-0.182 -0.664,-0.212zm0.334 0.401c1.071,0.722 2.038,1.551 2.834,2.46 0.865,1.062 1.064,1.343 1.614,2.499l0 0c-1.151,-0.663 -2.433,-1.214 -3.833,-1.636l0 0c-0.212,-0.499 -0.536,-1.01 -0.978,-1.515l0 0c-0.483,-0.55 -1.065,-1.049 -1.713,-1.487 0.707,-0.238 1.419,-0.374 2.076,-0.321zm0.375 0.052c0.302,0.062 0.589,0.17 0.854,0.334 3.88,2.597 6.978,6.271 8.865,10.595 -0.404,-0.895 -0.924,-1.738 -1.539,-2.521 -0.477,-1.125 -1.189,-2.273 -2.145,-3.413l-0.358 -0.418 0 0c-0.092,-0.105 -0.188,-0.208 -0.286,-0.308 1.03,1.176 1.787,2.366 2.28,3.53l0 0c-0.812,-0.913 -1.772,-1.733 -2.866,-2.444 -0.377,-0.89 -0.955,-1.799 -1.743,-2.698 -1.949,-2.079 -3.052,-2.653 -3.062,-2.657zm-13.532 2.066c0.11,0.755 0.492,1.562 1.165,2.358 -1.474,0.685 -2.933,1.486 -4.356,2.385l0 0c-1.11,-1.314 -1.74,-2.645 -1.921,-3.891 1.66,-0.417 3.373,-0.706 5.112,-0.852zm-6.186 1.142c0.196,1.345 0.876,2.782 2.074,4.2l0 0c-1.403,0.94 -2.766,1.972 -4.064,3.079l0 0c-1.568,-1.857 -2.459,-3.737 -2.714,-5.498 1.492,-0.711 3.069,-1.309 4.704,-1.781zm-9.733 4.86c1.248,-0.968 2.613,-1.839 4.068,-2.599l0 0c0.267,1.841 1.199,3.808 2.839,5.749 -1.269,1.137 -2.467,2.343 -3.574,3.6l0 0c-1.926,-2.279 -3.02,-4.589 -3.333,-6.75zm-0.798 0.645c0.322,2.219 1.445,4.59 3.423,6.931 -1.066,1.276 -2.035,2.599 -2.883,3.946 -2.162,-2.558 -3.39,-5.149 -3.742,-7.576 0.929,-1.187 2.005,-2.292 3.202,-3.301zm-6.953 12.976c0.051,-1.346 0.293,-2.719 0.741,-4.1 0.367,2.531 1.648,5.235 3.903,7.903l0.002 -0.006 -0.003 0.006c-0.454,1.367 -0.735,2.661 -0.854,3.871 -2.189,-2.591 -3.433,-5.217 -3.789,-7.674zm1.062 -4.998c0.531,-1.368 1.242,-2.67 2.104,-3.892 0.357,2.458 1.601,5.083 3.79,7.674l0 0c-0.796,1.358 -1.467,2.738 -1.992,4.12 -2.255,-2.668 -3.535,-5.372 -3.902,-7.902zm-1.069 5.872c0.352,2.427 1.58,5.019 3.741,7.577l0 0c-0.049,1.172 0.062,2.257 0.321,3.243 -1.476,-1.748 -2.477,-3.513 -3.023,-5.219l0.32 0.939 0.197 0.523c0.564,1.443 1.459,2.921 2.696,4.385l0 0 0 0.001c0.307,0.892 0.74,1.693 1.299,2.391 -2.888,-3.472 -4.835,-7.754 -5.45,-12.455 -0.056,-0.457 -0.091,-0.919 -0.101,-1.385zm-0.083 -1.795c-0.388,-5.257 1.932,-10.818 4.855,-14.721 -1.215,1.672 -1.793,3.631 -1.695,5.74l0 0 0 0c-0.865,1.205 -1.577,2.495 -2.109,3.861 -0.062,-1.355 0.103,-2.692 0.572,-3.893 -0.661,1.857 -0.876,2.764 -0.892,4.792l0 0 0 0c-0.448,1.383 -0.681,2.857 -0.731,4.221zm8.984 -18.778c-1.436,1.637 -2.13,3.635 -2.029,5.809l0 0 0 0c-1.201,0.974 -2.279,2.05 -3.21,3.216 -0.102,-2.215 0.55,-4.262 1.91,-5.979 1.012,-1.197 2.012,-2.165 3.329,-3.046zm-1.229 5.187c-0.098,-2.117 0.578,-4.062 1.976,-5.657l-0.011 0.007 0.012 -0.007 0 0c1.168,-0.688 2.438,-1.233 3.787,-1.627 -1.191,1.358 -1.766,3.015 -1.683,4.818l0 0c-1.459,0.71 -2.828,1.536 -4.081,2.466zm10.996 -8.044c-0.87,0.993 -1.29,2.203 -1.229,3.521l0 0c-1.642,0.41 -3.224,0.951 -4.721,1.61 -0.08,-1.724 0.47,-3.308 1.609,-4.606 1.382,-0.329 2.837,-0.506 4.341,-0.525zm-0.152 3.271c-0.056,-1.22 0.333,-2.341 1.139,-3.26 1.525,0.05 3.094,0.259 4.683,0.633 -0.489,0.558 -0.725,1.238 -0.691,1.977 -1.746,0.077 -3.465,0.297 -5.131,0.65zm12.479 -0.1c-2.062,-0.435 -4.133,-0.549 -6.206,-0.578 -0.029,-0.629 0.172,-1.207 0.587,-1.681l0 0c1.866,0.522 3.751,1.272 5.619,2.259zm0 0c-1.633,0.474 -3.291,1.142 -4.94,1.97l0 0c0.626,0.658 1.422,1.223 2.3,1.665 0.914,-1.36 1.802,-2.585 2.64,-3.635zm-0.746 23.495c-0.3,1.667 -0.645,3.308 -1.033,4.892 -3.61,-0.481 -7.279,-1.545 -10.679,-3.086 0.614,-1.519 1.266,-3.071 1.942,-4.63 3.111,1.41 6.467,2.384 9.77,2.824zm-2.947 11.272c-0.495,1.346 -1.002,2.525 -1.511,3.535 -3.657,-0.487 -7.373,-1.566 -10.817,-3.126 0.318,-1.066 0.714,-2.277 1.189,-3.629 3.547,1.608 7.373,2.719 11.139,3.22zm-10.819 -4.118c0.504,-1.398 1.061,-2.861 1.658,-4.363 3.444,1.561 7.16,2.64 10.817,3.126 -0.405,1.558 -0.851,3.053 -1.335,4.456 -3.766,-0.502 -7.593,-1.612 -11.14,-3.219zm6.556 -15.654c2.58,1.17 5.364,1.977 8.104,2.342 -0.187,1.69 -0.423,3.388 -0.704,5.067 -3.217,-0.429 -6.485,-1.377 -9.514,-2.75 0.687,-1.561 1.395,-3.123 2.114,-4.659l0 0zm2.646 -5.448c1.885,0.854 3.918,1.444 5.92,1.711 -0.064,1.625 -0.181,3.294 -0.347,4.978 -2.62,-0.348 -5.282,-1.121 -7.748,-2.239 0.722,-1.524 1.451,-3.016 2.175,-4.45zm0.47 -0.926c0.721,-1.408 1.433,-2.752 2.123,-4.005l0 0c1.059,0.48 2.201,0.811 3.326,0.961 0.067,1.472 0.078,3.025 0.036,4.629 -1.854,-0.247 -3.739,-0.794 -5.485,-1.585zm5.397 -3.992c-0.956,-0.127 -1.926,-0.409 -2.827,-0.817l0 0 0 0c0.796,-1.416 1.56,-2.701 2.27,-3.812 0.266,1.393 0.45,2.952 0.557,4.629zm-7.623 36.605c-3.303,-0.44 -6.66,-1.413 -9.77,-2.824 0.129,-0.704 0.335,-1.558 0.619,-2.56l0 0c3.4,1.541 7.069,2.606 10.68,3.087l0 0c-0.511,0.936 -1.023,1.702 -1.529,2.297zm-2.251 1.493c-0.188,0.039 -0.232,0.05 -0.414,0.032 -2.469,-0.318 -4.823,-1.004 -7.006,-1.999 -0.081,-0.051 -0.144,-0.144 -0.187,-0.273 2.467,1.118 4.988,1.891 7.607,2.24zm-7.592 -3.879c3.029,1.373 6.298,2.321 9.514,2.75l0 0c-0.501,0.52 -0.995,0.867 -1.472,1.041 -2.74,-0.365 -5.523,-1.173 -8.103,-2.343 -0.055,-0.326 -0.036,-0.811 0.061,-1.448zm11.051 -36.399c0.736,0.774 1.672,1.438 2.705,1.958 -0.789,1.206 -1.597,2.505 -2.405,3.87 -1.705,-0.858 -3.25,-1.954 -4.465,-3.231 1.362,-0.965 2.757,-1.838 4.165,-2.597zm-5.047 3.239c1.312,1.379 2.978,2.561 4.819,3.488 -0.81,1.393 -1.62,2.847 -2.415,4.335 -2.409,-1.212 -4.589,-2.76 -6.306,-4.564 1.248,-1.161 2.556,-2.254 3.902,-3.259zm-4.708 4.026c1.796,1.887 4.077,3.505 6.595,4.773 -0.788,1.503 -1.559,3.035 -2.299,4.571 -2.958,-1.49 -5.636,-3.39 -7.744,-5.605 1.071,-1.296 2.227,-2.549 3.448,-3.739zm-4.134 4.59c2.164,2.275 4.914,4.226 7.951,5.755 -0.726,1.536 -1.418,3.068 -2.062,4.573 -3.319,-1.672 -6.326,-3.805 -8.691,-6.291 0.829,-1.371 1.77,-2.723 2.802,-4.037l0 0zm-3.327 4.933c2.397,2.518 5.441,4.678 8.803,6.371 -0.622,1.49 -1.194,2.947 -1.701,4.342 -3.462,-1.743 -6.597,-3.968 -9.065,-6.562 0.523,-1.383 1.184,-2.774 1.963,-4.151zm-2.284 5.051c2.468,2.593 5.603,4.818 9.066,6.561l0 0c-0.473,1.354 -0.854,2.571 -1.146,3.649 -3.362,-1.693 -6.407,-3.853 -8.803,-6.372 0.136,-1.19 0.427,-2.474 0.883,-3.838zm-0.542 8.359c2.108,2.215 4.786,4.116 7.744,5.604l0 0.001c-0.043,0.662 -0.001,1.177 0.123,1.537 -2.518,-1.269 -4.799,-2.887 -6.594,-4.774 0.088,0.107 0.181,0.212 0.276,0.313l0.422 0.435c1.666,1.665 3.727,3.1 5.99,4.239l0 0c0.074,0.115 0.212,0.243 0.317,0.333 -2.65,-1.34 -5.025,-3.147 -7.015,-5.312l0.01 -0.008c-0.558,-0.673 -0.985,-1.466 -1.273,-2.368zm-0.167 -0.604c-0.227,-0.949 -0.31,-2.003 -0.241,-3.153l0 0c2.366,2.486 5.372,4.619 8.692,6.291l0 0c-0.255,1.016 -0.42,1.89 -0.5,2.617 -3.037,-1.529 -5.787,-3.48 -7.951,-5.755zm32.598 -28.581c0.281,-0.647 0.302,-1.39 0.046,-2.169 1.428,0.496 2.736,1.117 3.913,1.847l0 0c0.423,1.284 0.388,2.511 -0.075,3.577l0 0c-1.168,-1.172 -2.466,-2.265 -3.884,-3.255zm4.626 4.03c0.499,-1.151 0.538,-2.475 0.081,-3.861 1.118,0.775 2.1,1.656 2.934,2.623l0 0c0.597,1.815 0.548,3.547 -0.107,5.054l0 0c-0.825,-1.331 -1.799,-2.611 -2.908,-3.816zm5.501 9.788c0.814,-1.873 0.885,-4.024 0.164,-6.277l-0.065 -0.203c-0.067,-0.203 -0.138,-0.404 -0.214,-0.603 0.051,0.131 0.102,0.262 0.149,0.395 0.776,2.302 1.221,4.757 1.275,7.307 -0.001,-0.037 -0.002,-0.074 -0.003,-0.112l-0.007 1.483 0 0c-0.039,1.146 -0.283,2.242 -0.727,3.262l0 0c-0.063,1.436 -0.311,2.86 -0.76,4.25 -0.048,0.151 -0.1,0.302 -0.154,0.452 -0.053,0.15 -0.108,0.299 -0.166,0.447 -0.061,0.156 -0.114,0.309 -0.176,0.462 1.286,-2.979 1.999,-6.263 1.999,-9.714 0,-0.156 -0.002,-0.31 -0.006,-0.465 0.012,1.281 -0.231,2.501 -0.722,3.63l0 0c-0.017,-1.44 -0.218,-2.885 -0.587,-4.314zm-0.265 -0.929c-0.442,-1.419 -1.05,-2.817 -1.811,-4.169 0.685,-1.575 0.737,-3.387 0.112,-5.284 0.767,1.005 1.382,2.093 1.829,3.248l0.001 0.002c0.733,2.227 0.673,4.354 -0.131,6.203zm-12.402 24.168c0.451,-0.182 0.878,-0.382 1.282,-0.597 -0.769,0.424 -1.563,0.809 -2.379,1.149 0.374,-0.161 0.74,-0.347 1.097,-0.552zm0.634 -0.393c0.956,-0.637 1.835,-1.438 2.617,-2.4 1.861,-0.754 3.364,-1.76 4.491,-2.953 -1.459,1.632 -3.134,3.069 -4.98,4.264l-1.18 0.717c0.314,-0.178 0.622,-0.364 0.926,-0.556 -0.572,0.343 -1.197,0.654 -1.874,0.928zm4.91 -24.768c-0.5,-1.621 -1.116,-3.221 -1.84,-4.771 1.513,-0.613 2.598,-1.525 3.227,-2.627 1.082,1.258 2.033,2.587 2.836,3.961l0 0.001c-0.822,1.44 -2.244,2.634 -4.223,3.436zm0.309 1.061c2.07,-0.84 3.558,-2.088 4.417,-3.595 0.739,1.394 1.328,2.829 1.754,4.281l0 0c-1.009,1.769 -2.754,3.235 -5.185,4.22 -0.205,-1.632 -0.536,-3.277 -0.986,-4.906zm1.102 5.968c2.495,-1.011 4.288,-2.517 5.324,-4.333 0.355,1.458 0.543,2.928 0.551,4.386l0.001 0 -0.001 0c-1.132,1.985 -3.092,3.631 -5.82,4.737 0.115,-1.559 0.094,-3.164 -0.055,-4.79zm-0.04 5.799c2.763,-1.12 4.748,-2.787 5.895,-4.798 -0.07,1.452 -0.323,2.885 -0.773,4.276l0 0 -0.002 0.007 0.002 -0.007c-1.182,2.071 -3.225,3.787 -6.071,4.941 0.461,-1.4 0.774,-2.883 0.949,-4.419zm-1.27 5.318c2.847,-1.153 4.89,-2.87 6.071,-4.941 -0.249,0.639 -0.527,1.246 -0.846,1.831 -0.591,1.055 -1.257,2.061 -1.992,3.013l-0.679 0.84c0.201,-0.238 0.398,-0.478 0.589,-0.723 -1.181,1.456 -2.87,2.672 -5.04,3.552 0.74,-1.032 1.379,-2.224 1.897,-3.572zm-32.703 -33.231c0.86,-0.782 1.775,-1.504 2.74,-2.159 -0.407,0.286 -0.782,0.59 -1.126,0.911l-1.614 1.248zm2.345 -1.7c0.584,-0.547 1.265,-1.044 2.039,-1.481 -0.425,0.242 -0.842,0.496 -1.251,0.762l1.287 -0.782c2.346,-1.329 4.931,-2.284 7.676,-2.781 0.135,-0.02 0.276,-0.034 0.403,-0.048 -0.458,0.052 -0.92,0.149 -1.368,0.257 -2.165,0.518 -3.873,1.402 -5.092,2.541l-3.694 1.532zm11.182 -4.498c0.975,-0.119 1.968,-0.18 2.975,-0.18 1.791,0 3.537,0.194 5.219,0.558 0.119,0.033 0.231,0.103 0.336,0.199 -2.006,-0.435 -4.028,-0.562 -5.885,-0.322l0 0c-0.86,-0.247 -1.753,-0.348 -2.645,-0.255zm3.232 0.45c1.721,-0.223 3.594,-0.105 5.452,0.297l0 0 0 0c0.228,0.3 0.414,0.775 0.555,1.429 -1.127,-0.245 -2.263,-0.316 -3.306,-0.181l0 0 0 0c-0.893,-0.694 -1.799,-1.209 -2.701,-1.545zm6.308 5.475c-0.971,-1.399 -1.989,-2.548 -3.026,-3.451 0.887,-0.115 1.852,-0.055 2.81,0.153l0 0 0 0c0.14,0.854 0.215,1.952 0.216,3.298zm0 0c-1.804,-1.053 -3.627,-1.867 -5.434,-2.45 0.425,-0.397 1.021,-0.705 1.776,-0.886 0.088,-0.021 0.178,-0.04 0.268,-0.058 1.154,0.885 2.292,2.015 3.39,3.394zm-4.35 -3.794c-0.888,0.213 -1.589,0.575 -2.089,1.043 -1.539,-0.426 -3.061,-0.684 -4.541,-0.78 0.825,-0.771 1.981,-1.369 3.446,-1.721 0.171,-0.04 0.344,-0.077 0.519,-0.111 0.989,0.323 1.988,0.822 2.98,1.502 0,0.006 -0.287,0.061 -0.315,0.067zm-3.309 -1.754c-0.188,0.036 -0.375,0.076 -0.56,0.12 -1.581,0.379 -2.829,1.025 -3.72,1.857l0 0c-1.461,-0.025 -2.876,0.11 -4.221,0.4 1.166,-1.089 2.798,-1.934 4.869,-2.429 0.241,-0.058 0.486,-0.11 0.733,-0.158l2.899 0.21zm5.666 48.084c-1.81,0.343 -3.747,0.404 -5.737,0.228 0.551,-0.165 1.111,-0.505 1.67,-1.019l0 0c2.679,0.237 5.292,0.098 7.67,-0.472 0.461,-0.11 0.904,-0.234 1.329,-0.371 -0.556,0.323 -1.134,0.595 -1.731,0.803 -1.039,0.346 -2.107,0.625 -3.201,0.831zm5.538 -2.017c-0.437,0.141 -0.892,0.269 -1.365,0.383 -2.442,0.584 -5.125,0.726 -7.875,0.484 0.558,-0.589 1.114,-1.351 1.656,-2.283l0 0c3.006,0.265 5.939,0.109 8.609,-0.53 0.517,-0.124 1.014,-0.263 1.492,-0.418 -0.758,0.952 -1.603,1.742 -2.517,2.364zm2.998 -3.009c-0.483,0.157 -0.987,0.298 -1.51,0.423 -2.704,0.648 -5.675,0.805 -8.72,0.537 0.537,-1.007 1.059,-2.184 1.557,-3.53l0 0c3.136,0.277 6.195,0.114 8.979,-0.552 0.54,-0.129 1.059,-0.275 1.556,-0.436 -0.516,1.347 -1.143,2.534 -1.862,3.558zm0.627 -4.021c-2.784,0.666 -5.844,0.828 -8.98,0.552 0.481,-1.403 0.913,-2.9 1.29,-4.461 3.045,0.268 6.016,0.111 8.72,-0.536 0.524,-0.125 1.027,-0.267 1.51,-0.424 -0.196,1.545 -0.522,3.031 -0.984,4.432 0,0.031 -1.423,0.405 -1.556,0.437zm1.158 -5.465c-2.669,0.639 -5.602,0.795 -8.608,0.529 0.355,-1.587 0.657,-3.233 0.905,-4.906l0 0c2.75,0.242 5.434,0.1 7.876,-0.485 0.473,-0.113 0.928,-0.241 1.364,-0.382 0.108,1.64 0.096,3.258 -0.045,4.826 0,0.029 -1.363,0.387 -1.492,0.418zm0.121 -5.944c-2.378,0.569 -4.992,0.708 -7.67,0.472 0.224,-1.685 0.393,-3.391 0.506,-5.089l0 0c2.281,0.201 4.506,0.084 6.532,-0.402 0.392,-0.094 0.769,-0.2 1.131,-0.317 0.391,1.651 0.67,3.315 0.83,4.963 0,0.027 -1.215,0.346 -1.329,0.373zm-0.853 -6.107c-1.936,0.463 -4.065,0.576 -6.246,0.384 0.088,-1.693 0.119,-3.372 0.091,-5.007 1.666,0.147 3.293,0.061 4.773,-0.293 0.286,-0.069 0.562,-0.147 0.826,-0.232 0.652,1.576 1.2,3.2 1.638,4.845 0,0.02 -0.989,0.281 -1.082,0.303zm-6.521 -10.345c0.936,0.083 1.849,0.034 2.681,-0.164 0.16,-0.039 0.315,-0.083 0.464,-0.131 0.89,1.417 1.686,2.917 2.381,4.471 0.005,0.014 -0.702,0.2 -0.766,0.215 -1.37,0.328 -2.877,0.408 -4.421,0.272l0 0c-0.054,-1.615 -0.166,-3.179 -0.339,-4.663zm-0.122 -0.955c-0.233,-1.692 -0.55,-3.265 -0.953,-4.673 1.327,1.321 2.54,2.811 3.627,4.422l0 0c-0.127,0.041 -0.258,0.078 -0.395,0.111 -0.707,0.169 -1.483,0.21 -2.279,0.14zm-9.041 38.174c1.212,0.107 2.408,0.12 3.563,0.031 -0.673,0.055 -1.353,0.084 -2.04,0.084 -0.691,0 -1.374,-0.03 -2.05,-0.086 0.174,0.009 0.35,0 0.526,-0.029l0.001 0zm24.558 -16.065c-0.048,0.151 -0.1,0.302 -0.154,0.452 -0.053,0.15 -0.108,0.299 -0.166,0.447 0.091,-0.211 0.455,-1.21 0.32,-0.899zm-4.579 -24.509c-0.328,-0.352 -0.757,-0.831 -1.096,-1.173l0.81 0.865c0.098,0.1 0.194,0.203 0.286,0.308z"/>
   </g>
  </g>
 </g>
</svg>
