<?xml version="1.0" encoding="UTF-8"?>
<!DOCTYPE svg PUBLIC "-//W3C//DTD SVG 1.1//EN" "http://www.w3.org/Graphics/SVG/1.1/DTD/svg11.dtd">
<!-- Creator: CorelDRAW 2018 (64-Bit) -->
<svg xmlns="http://www.w3.org/2000/svg" xml:space="preserve" width="100px" height="100px" version="1.1" shape-rendering="geometricPrecision" text-rendering="geometricPrecision" image-rendering="optimizeQuality" fill-rule="evenodd" clip-rule="evenodd"
     viewBox="0 0 6256.87 6260.19"
     xmlns:xlink="http://www.w3.org/1999/xlink">
 <g id="Layer_x0020_1">
  <metadata id="CorelCorpID_0Corel-Layer"/>
   <path fill="#CDEAFB" stroke="#206EB5" stroke-width="250" stroke-linejoin="round" stroke-miterlimit="22.9256" d="M6131.84 6135.16l-1452.83 -528.78c-458.55,289.85 -1001.85,457.76 -1584.44,457.76 -1640.05,0 -2969.57,-1329.52 -2969.57,-2969.57 0,-1640.05 1329.52,-2969.57 2969.57,-2969.57 1640.05,0 2969.57,1329.52 2969.57,2969.57 0,584.52 -168.96,1129.56 -460.62,1589.02l528.32 1451.57z"/>
   <g id="_2008616843184">
   <path fill="#206EB5" fill-rule="nonzero" d="M5257.48 3094.56c0,1194.27 -968.36,2162.43 -2162.9,2162.43 -1194.55,0 -2162.92,-968.16 -2162.92,-2162.43 0,-1194.25 968.37,-2162.4 2162.92,-2162.4 1194.54,0 2162.9,968.15 2162.9,2162.4z"/>
     <path fill="#CDEAFB" fill-rule="nonzero" d="M4155.88 1421.92c-22.53,-1.46 -45.49,-2.31 -68.89,-2.56 33.14,37.83 57.47,76.07 73.34,113.51 27.75,7 55.04,14.53 81.82,22.6 -18.68,-44.04 -47.3,-89.03 -86.27,-133.55zm97.09 162.27c-27.32,-9.5 -55.14,-18.47 -83.43,-26.91 19.2,58.33 17.61,114.03 -3.42,162.46 28.09,18.08 55.71,36.61 82.82,55.56 24.77,-56.96 26.63,-122.5 4.03,-191.11zm-15.65 214.33c-26.55,-20.11 -53.59,-39.8 -81.09,-59.04 -26.43,46.31 -72.13,84.7 -135.77,110.5 19.45,25.8 38.49,52 57.14,78.53 74.88,-30.34 128.63,-75.51 159.72,-129.99zm-192.12 141.77c-17.05,-27.12 -34.47,-53.9 -52.27,-80.3 -11.15,3.6 -22.75,6.86 -34.81,9.74 -62.27,14.91 -130.69,18.55 -200.82,12.35 3.83,27.72 7.39,55.8 10.71,84.2 82.5,7.29 163,3.01 236.25,-14.53 14.19,-3.39 27.84,-7.22 40.94,-11.46zm-318.3 21.44c-1.28,-28.17 -2.81,-56.03 -4.55,-83.52 -84.23,-11.21 -169.8,-36.04 -249.12,-72 -13.05,23.21 -26.18,46.82 -39.42,70.82 93.33,42.3 193.99,71.52 293.09,84.7zm-331.49 -103.07c15.13,-23.07 30.18,-45.77 45.16,-68.05 -77.44,-39 -147.55,-88.75 -202.75,-146.76 -27.01,13.57 -53.99,27.64 -80.93,42.18 64.94,68.24 147.42,126.77 238.52,172.63zm-264.48 -201.55c28.22,-13.11 56.51,-25.74 84.83,-37.84 -50.42,-59.68 -79.07,-120.14 -87.27,-176.74 -33.5,1.63 -66.93,3.84 -100.22,6.66 9.66,66.57 43.34,137.7 102.66,207.92zm-105.3 -235.35c33.43,-1.45 66.99,-2.3 100.61,-2.55 -2.55,-55.43 15.13,-106.35 51.76,-148.1 -30.58,-8.55 -61.08,-16.42 -91.51,-23.59 -43.07,49.12 -63.88,109.03 -60.86,174.24zm80.09 -194.05c29.47,8.14 59.01,17 88.61,26.56 37.47,-35.04 89.97,-62.2 156.53,-78.14 7.76,-1.86 15.63,-3.55 23.58,-5.06 -18.91,-14.49 -37.87,-28.23 -56.85,-41.23 -9.33,1.78 -18.59,3.76 -27.72,5.94 -78.31,18.76 -140.08,50.7 -184.15,91.93zm249.66 -103.89c17.12,13.3 34.18,27.34 51.17,42.14 78.15,-10.12 163.23,-4.78 247.62,13.51 -2.29,-13.99 -4.78,-27.24 -7.47,-39.75 -99.29,-21.52 -199.38,-27.81 -291.32,-15.9zm332.6 25.75c0.64,12.01 1.08,24.77 1.28,38.27 84.07,21.86 166.41,56.32 239.4,100.87 14.01,-7.51 27.65,-14.34 40.95,-20.48 -85.86,-52.42 -182.74,-92.96 -281.63,-118.66zm316.73 141.16c-15.04,5.04 -30.45,10.74 -46.22,17.11 48.67,32.77 92.35,70.22 128.5,111.52 23.4,0.25 46.36,1.1 68.89,2.56 -42.53,-48.57 -93.92,-92.63 -151.17,-131.19z"/>
     <path fill="#CDEAFB" fill-rule="nonzero" d="M4490.89 1501.29c-17.23,-7.86 -34.97,-15.18 -53.18,-21.96 76.31,93.61 93.78,118.42 142.31,220.29 22.05,12.7 43.55,25.86 64.5,39.48 -33.25,-78.43 -84.23,-158.53 -153.63,-237.81zm172.89 288.94c-21.41,-14.86 -43.38,-29.27 -65.91,-43.25 37.28,113.19 34.2,221.3 -6.64,315.26 22.35,22.44 44.14,45.22 65.39,68.31 44.09,-101.44 47.41,-218.14 7.16,-340.32zm-27.87 381.64c-20.74,-24.07 -42.02,-47.87 -63.86,-71.35 -51.28,89.88 -139.97,164.37 -263.47,214.45 14.75,29.24 29.06,58.7 42.92,88.38 133.33,-54.05 229.06,-134.46 284.41,-231.48zm-342.1 252.44c-12.46,-30.18 -25.35,-60.18 -38.66,-89.94 -21.61,7.02 -44.13,13.33 -67.53,18.94 -120.83,28.93 -253.63,35.97 -389.71,23.96 1.02,30.92 1.81,62.04 2.35,93.34 146.88,12.96 290.22,5.36 420.67,-25.88 25.26,-6.05 49.57,-12.87 72.88,-20.42zm-566.76 38.19c1.23,-31.11 2.25,-62.03 3.05,-92.74 -163.44,-21.76 -329.53,-69.96 -483.45,-139.72 -13.79,26.95 -27.62,54.17 -41.47,81.63 166.16,75.31 345.43,127.34 521.87,150.83zm-590.26 -183.52c15.51,-26.67 31.01,-53.09 46.52,-79.22 -150.27,-75.67 -286.35,-172.22 -393.44,-284.78 -26.08,18.49 -52.02,37.36 -77.79,56.6 115.62,121.5 262.5,225.71 424.71,307.4zm-470.94 -358.91c26.89,-18 53.96,-35.61 81.18,-52.81 -97.83,-115.8 -153.43,-233.14 -169.34,-342.96 -31.78,7.99 -63.33,16.5 -94.65,25.55 17.2,118.56 77.2,245.22 182.81,370.22zm-187.49 -419.05c31.42,-7.87 63.08,-15.19 94.98,-21.97 -4.97,-107.56 29.36,-206.38 100.41,-287.4 -29.19,-0.96 -58.21,-1.25 -87.01,-0.9 -76.7,87.46 -113.76,194.13 -108.38,310.27zm142.61 -345.55c27.96,0.49 56.14,1.65 84.47,3.48 72.72,-67.97 174.59,-120.69 303.77,-151.62 15.07,-3.61 30.32,-6.87 45.73,-9.81 -18.94,-6.16 -37.84,-11.6 -56.7,-16.32 -16.65,3.17 -33.12,6.7 -49.38,10.59 -139.43,33.4 -249.41,90.29 -327.89,163.68zm444.56 -184.99c17.22,4.98 34.49,10.68 51.75,17.12 151.64,-19.65 316.75,-9.28 480.52,26.24 -4.35,-5.74 -8.87,-10.75 -13.56,-15.02 -176.8,-38.34 -355.01,-49.55 -518.71,-28.34zm592.21 45.85c2.91,3.85 5.63,8.44 8.16,13.73 163.14,42.42 322.92,109.28 464.57,195.74 9.96,-0.04 19.55,0.57 28.76,1.82 -152.91,-93.32 -325.39,-165.52 -501.49,-211.29zm563.99 251.36c-10.74,-2.21 -21.85,-3.81 -33.37,-4.77 94.44,63.61 179.2,136.28 249.35,216.41 18.21,6.78 35.95,14.1 53.18,21.96 -171.75,-183.24 -268.33,-233.23 -269.16,-233.6z"/>
     <path fill="#CDEAFB" fill-rule="nonzero" d="M4721.35 1670.54c-8.14,-9.29 -16.55,-18.35 -25.24,-27.18 90.83,103.75 157.55,208.57 201.07,311.21 15.56,17.5 30.53,35.39 44.86,53.65 -42.08,-99.21 -104.88,-200.39 -189.16,-300.83l-31.53 -36.85zm247.05 407.66c-14.7,-19.26 -30.05,-38.17 -46.01,-56.72 52.66,159.92 48.31,312.63 -9.39,445.39 15.83,25.5 31.03,51.21 45.59,77.12 60.35,-138.84 64.89,-298.55 9.81,-465.79zm-38.15 522.35c-14.17,-26.7 -28.94,-53.25 -44.35,-79.59 -72.43,126.97 -197.73,232.21 -372.2,302.94 9.58,31.07 18.67,62.24 27.29,93.47 182.47,-73.98 313.5,-184.03 389.26,-316.82zm-468.22 345.51c-7.47,-31.64 -15.41,-63.23 -23.82,-94.72 -30.53,9.87 -62.35,18.8 -95.41,26.73 -170.7,40.87 -358.31,50.81 -550.55,33.86 -1.68,32.45 -3.6,64.96 -5.76,97.5 201.05,17.73 397.24,7.35 575.78,-35.42 34.58,-8.27 67.85,-17.61 99.76,-27.95zm-775.72 52.27c3.57,-32.38 6.96,-64.73 10.13,-97.02 -230.91,-30.73 -465.51,-98.82 -682.98,-197.39 -13.83,29.21 -27.65,58.53 -41.43,87.97 227.42,103.08 472.79,174.3 714.28,206.44zm-807.88 -251.19c15.12,-28.8 30.3,-57.48 45.53,-86 -212.29,-106.9 -404.51,-243.3 -555.83,-402.32 -23.91,22.26 -47.59,44.79 -70.99,67.58 158.24,166.32 359.27,308.96 581.29,420.74zm-644.57 -491.23c24.31,-21.8 48.9,-43.3 73.78,-64.49 -138.23,-163.59 -216.76,-329.37 -239.26,-484.53 -28.6,13.63 -56.84,27.74 -84.73,42.3 23.54,162.27 105.66,335.63 250.21,506.72zm-256.62 -573.55c27.97,-13.62 56.3,-26.74 85,-39.38 -7.02,-151.97 41.49,-291.58 141.85,-406.04 -26.47,6.29 -52.66,13.21 -78.5,20.77 -104.98,119.72 -155.7,265.71 -148.35,424.65zm195.18 -472.94c25.18,-6.86 50.68,-13.09 76.45,-18.66 102.74,-96.04 246.65,-170.5 429.16,-214.19 21.27,-5.11 42.82,-9.72 64.6,-13.87 -18.08,2.01 -36.02,4.76 -53.84,8.2 -22.78,4.34 -45.31,9.17 -67.57,14.51 -190.85,45.7 -341.36,123.56 -448.8,224.01zm643.32 -258.94l14.96 -1.8c12.47,-1.62 25,-3.1 37.6,-4.42l-52.56 6.22zm1905.61 720.06c-28.92,-31.06 -66.69,-73.24 -96.58,-103.37l71.34 76.19c8.69,8.83 17.1,17.89 25.24,27.18z"/>
     <path fill="#CDEAFB" fill-rule="nonzero" d="M5150.24 2422.11c-6.34,-19.39 -13.19,-38.59 -20.56,-57.6 64.68,196.37 59.34,383.9 -11.52,546.91 8.49,27.22 16.27,54.52 23.34,81.9 71.76,-165.11 78.08,-354.7 14.51,-553.33l-5.77 -17.88zm-42.91 639.41c-6.79,-27.95 -14.28,-55.84 -22.44,-83.67 -88.96,155.92 -242.81,285.14 -457.07,371.99 3.93,31.29 7.33,62.5 10.2,93.64 220,-89.18 377.98,-221.87 469.31,-381.96zm-564.5 416.55c-2.06,-31.43 -4.64,-62.97 -7.71,-94.54 -37.48,12.13 -76.53,23.09 -117.15,32.82 -209.61,50.2 -439.98,62.41 -676.04,41.59 -4.29,32.28 -8.82,64.47 -13.56,96.54 242.39,21.38 478.93,8.84 694.17,-42.7 41.7,-9.98 81.8,-21.24 120.29,-33.71zm-935.26 63.03c5.76,-31.96 11.33,-64.03 16.72,-96.19 -283.56,-37.75 -571.64,-121.37 -838.67,-242.4 -13.17,29.9 -26.24,59.81 -39.22,89.68 274.19,124.3 570.01,210.16 861.17,248.91zm-974.01 -302.84c13.9,-29.42 27.97,-58.87 42.15,-88.29 -260.68,-131.26 -496.73,-298.75 -682.53,-494.03 -20.52,24.85 -40.69,49.87 -60.47,75.05 190.78,200.5 433.17,372.49 700.85,507.27zm-777.12 -592.26c20.42,-24.47 41.23,-48.74 62.44,-72.82 -169.72,-200.89 -266.16,-404.44 -293.79,-594.97 -23.93,18.55 -47.37,37.51 -70.33,56.86 28.37,195.64 127.39,404.66 301.68,610.93zm-309.42 -691.51c23.02,-18.68 46.53,-36.93 70.53,-54.77 -8.62,-186.61 50.95,-358.03 174.19,-498.6 -22.39,13.21 -44.35,27 -65.86,41.39 -126.57,144.33 -187.71,320.35 -178.86,511.98zm235.34 -570.2c21.03,-13.91 42.5,-27.2 64.37,-39.87 52.41,-49 113.56,-93.43 183.2,-132.46l-121.39 73.81c-46.42,30.34 -88.49,63.28 -126.18,98.52z"/>
     <path fill="#CDEAFB" fill-rule="nonzero" d="M5256.04 3168.73l0.64 -130.73c3.25,118.57 -18.19,231.49 -63.4,335.52 0.33,27.59 -0.1,55.15 -1.3,82.66 39.09,-89.93 60.63,-186.43 64.06,-287.45zm-101.89 362.96c1.35,-27.8 1.93,-55.68 1.78,-83.61 -99.84,175 -272.53,320.03 -513.02,417.53 -2.21,29.86 -4.99,59.53 -8.35,88.97 243.58,-98.74 418.47,-245.64 519.59,-422.89zm-624.98 461.17c3.77,-29.58 7,-59.41 9.69,-89.45 -42.08,13.63 -85.92,25.94 -131.49,36.85 -235.29,56.34 -493.86,70.05 -758.81,46.67 -6.81,30.43 -13.83,60.61 -21.09,90.53 268.35,23.66 530.24,9.79 768.53,-47.27 46.16,-11.05 90.57,-23.52 133.17,-37.33zm-1035.43 69.78c7.77,-29.86 15.36,-59.97 22.77,-90.33 -318.26,-42.37 -641.63,-136.21 -941.35,-272.07 -11.77,29.09 -23.38,58.05 -34.82,86.85 303.55,137.58 631.06,232.66 953.4,275.55zm-1078.35 -335.27c11.93,-28.57 24.07,-57.28 36.42,-86.1 -292.59,-147.33 -557.56,-335.33 -766.1,-554.5 -15.88,26.25 -31.29,52.6 -46.22,79 211.22,221.97 479.57,412.38 775.9,561.6zm-860.37 -655.71c15.26,-26.03 31.05,-51.96 47.31,-77.79 -190.51,-225.49 -298.75,-453.95 -329.77,-667.82 -17.78,22.75 -34.96,45.83 -51.52,69.25 31.42,216.6 141.04,447.99 333.98,676.36zm-342.54 -765.58c16.58,-23.07 33.8,-45.77 51.63,-68.11 -9.56,-206.9 55.54,-397.15 190.45,-553.82l-81.25 100.56c-114.85,150.72 -169.72,328.95 -160.83,521.37z"/>
     <path fill="#CDEAFB" fill-rule="nonzero" d="M5131.14 3820.75l21.25 -62.59c-7.94,24.64 -17.09,48.87 -27.43,72.65 -4.29,13.33 -8.8,26.61 -13.53,39.84 -4.71,13.26 -9.61,26.39 -14.7,39.41 3.95,-9.11 7.73,-18.29 11.34,-27.52l23.07 -61.79zm-73.37 167.07c5.08,-13.01 9.98,-26.13 14.69,-39.38 4.72,-13.25 9.24,-26.52 13.55,-39.87 -104.15,182.54 -284.27,333.83 -535.1,435.51 -4.41,13.43 -8.98,26.75 -13.7,40 -4.72,13.24 -9.56,26.33 -14.54,39.25 250.84,-101.69 430.96,-252.98 535.1,-435.51zm-643.64 474.94c4.96,-12.92 9.79,-26 14.52,-39.25 4.71,-13.23 9.3,-26.57 13.73,-40 -43.88,14.21 -89.61,27.06 -137.16,38.45 -245.4,58.77 -515.1,73.05 -791.47,48.67 -4.61,13.45 -9.28,26.79 -13.99,40.03 -4.73,13.25 -9.47,26.33 -14.24,39.23 276.35,24.36 546.05,10.08 791.47,-48.69 47.54,-11.39 93.27,-24.23 137.14,-38.44zm-1066.34 71.87c4.74,-12.9 9.47,-25.98 14.19,-39.23 4.72,-13.24 9.4,-26.59 14.04,-40.02 -331.95,-44.18 -669.25,-142.09 -981.86,-283.77 -4.83,13.38 -9.6,26.68 -14.33,39.93 -4.72,13.24 -9.35,26.35 -13.91,39.31 312.61,141.7 649.91,239.59 981.87,283.78zm-1110.54 -345.3c4.53,-12.96 9.15,-26.08 13.88,-39.31 4.71,-13.26 9.5,-26.56 14.35,-39.93 -305.19,-153.68 -581.54,-349.76 -799.07,-578.37 -5,13.26 -9.87,26.51 -14.59,39.75 -4.72,13.25 -9.26,26.41 -13.64,39.5 217.53,228.6 493.88,424.7 799.07,578.36zm-886.05 -675.27c4.36,-13.09 8.9,-26.27 13.61,-39.52 4.73,-13.24 9.6,-26.49 14.64,-39.73 -198.73,-235.18 -311.61,-473.48 -343.96,-696.55 -5.09,13.1 -10.01,26.28 -14.72,39.52 -4.73,13.25 -9.22,26.5 -13.51,39.72 32.33,223.07 145.23,461.37 343.94,696.56zm-352.78 -788.43c4.3,-13.25 8.81,-26.5 13.52,-39.75 4.72,-13.25 9.63,-26.41 14.72,-39.51 -5.51,-119.44 12.81,-233.57 54.16,-339.39l-23.06 61.76 -21.25 62.64c-36.21,142.5 -36.91,145.22 -38.09,294.25z"/>
     <path fill="#CDEAFB" fill-rule="nonzero" d="M4734.34 4505.38l81.25 -100.57c-104.61,137.28 -258.97,251.74 -460.21,333.32 -14.18,19.77 -28.78,38.87 -43.78,57.31 179.31,-72.68 320.91,-171.81 422.74,-290.06zm-526.78 327.87c14.51,-18.27 28.67,-37.21 42.44,-56.83 -42.62,13.8 -87.01,26.26 -133.18,37.32 -238.29,57.07 -500.17,70.94 -768.52,47.27 -10.29,19.29 -20.64,37.88 -31.04,55.76 264.96,23.36 523.52,9.67 758.81,-46.68 45.58,-10.91 89.42,-23.23 131.49,-36.84zm-1022.35 68.88c9.79,-17.93 19.58,-36.58 29.34,-55.94 -322.33,-42.91 -649.85,-137.96 -953.4,-275.54 -6.08,20.4 -11.84,40.23 -17.28,59.41 299.71,135.86 623.09,229.72 941.34,272.07zm-1064.7 -331.04c4.87,-19.46 10.09,-39.53 15.71,-60.17 -296.35,-149.23 -564.69,-339.62 -775.9,-561.6 -2.62,22.8 -4.57,45.25 -5.91,67.28 208.56,219.17 473.5,407.18 766.1,554.49zm-849.47 -647.4c0.93,-22.46 2.53,-45.3 4.81,-68.47 -192.94,-228.38 -302.57,-459.77 -333.98,-676.36 -0.98,25.79 -1.17,51.47 -0.59,77.03 31.01,213.86 139.24,442.33 329.76,667.8zm-338.23 -755.89c-0.62,-25.96 -0.46,-52.03 0.5,-78.17 -1.07,-23.15 -1.23,-46.11 -0.46,-68.83l-0.64 130.74c0.15,5.41 0.36,10.82 0.6,16.26z"/>
     <path fill="#CDEAFB" fill-rule="nonzero" d="M4158.95 4977.6l121.39 -73.84c-59.44,38.89 -125.98,73.51 -199.41,103.28 -18.33,12.22 -36.96,23.75 -55.89,34.6 47.64,-19.32 92.29,-40.73 133.91,-64.04zm-226.61 97.71c18.07,-10.53 35.87,-21.75 53.4,-33.69 -38.49,12.47 -78.6,23.73 -120.3,33.71 -215.24,51.55 -451.79,64.08 -694.18,42.7 -10.69,11.29 -21.41,21.85 -32.11,31.7 236.06,20.82 466.41,8.63 676.03,-41.59 40.61,-9.72 79.68,-20.68 117.16,-32.83zm-910.84 61.39c9.62,-9.97 19.29,-20.64 28.98,-32.04 -291.16,-38.76 -586.99,-124.62 -861.17,-248.91 -2.47,13.48 -4.64,26.34 -6.49,38.56 267.03,121.03 555.13,204.66 838.68,242.39zm-948.57 -294.93c0.82,-12.71 2,-26.02 3.54,-39.96 -267.68,-134.77 -510.05,-306.76 -700.84,-507.27 4.32,18.18 9.26,35.93 14.77,53.21 185.79,195.27 421.85,362.77 682.53,494.02zm-756.83 -576.8c-6.2,-18.06 -11.78,-36.53 -16.76,-55.42 -130.15,-154.04 -218.33,-309.61 -266.45,-460l28.2 82.75 17.35 46.08c49.72,127.18 128.54,257.44 237.66,386.59z"/>
     <path fill="#CDEAFB" fill-rule="nonzero" d="M3320.55 5245.28c53.48,-7.33 124.87,-16.83 178,-26.37 -159.52,30.16 -331.23,36.1 -506.65,20.63 -10.56,3.17 -21.09,5.59 -31.58,7.29 123.05,10.86 244.19,10.7 360.23,-1.55zm-456.02 -9.06c8.99,-1.87 18.05,-4.45 27.19,-7.77 -241.49,-32.14 -486.86,-103.36 -714.28,-206.45 1.06,6.27 2.43,11.87 4.1,16.82 217.46,98.57 452.08,166.66 682.99,197.4zm-772.48 -240.18c-3.09,-5.62 -5.82,-11.88 -8.21,-18.77 -222.01,-111.81 -423.05,-254.45 -581.28,-420.75 7.83,9.46 15.96,18.66 24.38,27.59l37.23 38.29c146.74,146.78 328.46,273.23 527.88,373.64zm-651.12 -508.05c-0.56,-0.65 -1.11,-1.31 -1.64,-1.97 -1.1,-1.28 -2.17,-2.57 -3.25,-3.84l4.89 5.81z"/>
     <path fill="#CDEAFB" fill-rule="nonzero" d="M3928.66 1288.71c14.01,-7.51 27.65,-14.34 40.95,-20.48 61.22,-28.3 114.99,-42.26 160.86,-42.43 9.96,-0.04 19.55,0.57 28.76,1.82 23.53,3.2 44.6,10.6 63.14,22.1l80.42 51.62c-23.75,-16.12 -50.82,-27.38 -81.06,-33.65 -10.74,-2.21 -21.85,-3.81 -33.37,-4.77 -53.03,-4.41 -114.43,4.64 -183.65,27.81 -15.04,5.04 -30.45,10.74 -46.22,17.11 -84.81,34.28 -180.17,88.06 -285.22,162.37 94.74,-80.93 180.11,-141.11 255.39,-181.5z"/>
     <path fill="#CDEAFB" fill-rule="nonzero" d="M3654.17 1179.47c-2.29,-13.99 -4.78,-27.24 -7.47,-39.75 -12.38,-57.59 -28.85,-99.48 -48.9,-125.88 -4.35,-5.74 -8.87,-10.75 -13.56,-15.02 -10.15,-9.27 -21.06,-15.11 -32.7,-17.59l26.69 5.97 59.26 14.5c7.52,1.88 14.28,6.75 20.25,14.63 2.91,3.85 5.63,8.44 8.16,13.73 11.62,24.41 19.11,64.16 22.08,119.51 0.64,12.01 1.08,24.77 1.28,38.27 1.16,72.61 -3.97,166.59 -15.99,282.37 -0.1,-118.68 -6.73,-215.46 -19.1,-290.74z"/>
     <path fill="#CDEAFB" fill-rule="nonzero" d="M3374.44 1171.07c-18.91,-14.49 -37.87,-28.23 -56.85,-41.23 -87.37,-59.85 -175.42,-103.88 -262.65,-132.32 -18.94,-6.16 -37.84,-11.6 -56.7,-16.32 -86.8,-21.64 -172.47,-27.75 -255.61,-18.5 -18.08,2.01 -36.02,4.76 -53.84,8.2 -0.21,0.05 -0.41,0.09 -0.63,0.14l127.58 -20.56 14.96 -1.8c76.79,-8.25 155.52,-1.03 234.83,21.8 17.22,4.98 34.49,10.68 51.75,17.12 79.53,29.66 159.34,75 238.1,136.22 17.12,13.3 34.18,27.34 51.17,42.14 91.44,79.6 181.06,180.9 266.72,304.25 -96.76,-121.57 -197.15,-221.18 -298.83,-299.14z"/>
     <path fill="#CDEAFB" fill-rule="nonzero" d="M3178 1271.11c-30.58,-8.55 -61.08,-16.42 -91.51,-23.59 -140.06,-33.02 -278.34,-51.46 -412.74,-55.87 -29.19,-0.96 -58.21,-1.25 -87.01,-0.9 -132.6,1.67 -260.85,17.25 -382.65,46.19 -26.47,6.29 -52.66,13.21 -78.5,20.77 -118.9,34.74 -230.88,82.72 -333.85,143.41 -22.39,13.21 -44.35,27 -65.86,41.39 -95.66,64.01 -182.46,139.77 -258.49,226.83l75.71 -82.14 71.53 -70.3c52.16,-49.05 108.22,-93.3 167.73,-132.61 21.03,-13.91 42.5,-27.2 64.37,-39.87 100.62,-58.27 209.87,-103.43 325.69,-135 25.18,-6.86 50.68,-13.09 76.45,-18.66 118.59,-25.63 243.31,-37.55 372.1,-35.29 27.96,0.49 56.14,1.65 84.47,3.48 130.49,8.47 264.6,31.21 400.28,68.76 29.47,8.14 59.01,17 88.61,26.56 159.21,51.39 319.95,123.11 478.94,215.94 -164.64,-87.01 -330.85,-153.09 -495.27,-199.1z"/>
     <path fill="#CDEAFB" fill-rule="nonzero" d="M3128.49 1442.53c-33.5,1.63 -66.93,3.84 -100.22,6.66 -153.34,12.93 -304.3,38.34 -450.58,75.11 -31.78,7.99 -63.33,16.5 -94.65,25.55 -144.13,41.62 -283.11,94.35 -414.66,157.04 -28.6,13.63 -56.84,27.74 -84.73,42.3 -128.2,66.99 -248.48,143.7 -358.56,229.02 -23.93,18.55 -47.37,37.51 -70.33,56.86 -105.52,89.01 -200.35,186.37 -282.2,290.98 -17.78,22.75 -34.96,45.83 -51.52,69.25 -76.08,107.7 -138.7,222.39 -185.55,342.96 -5.09,13.1 -10.01,26.28 -14.72,39.52 -4.73,13.25 -9.22,26.5 -13.51,39.72 -39.47,121.7 -60.83,242.72 -65.39,361.36 -0.98,25.79 -1.17,51.47 -0.59,77.03 1.15,50.37 5.35,100.25 12.48,149.48l-0.89 -6.16c-6.41,-62.08 -15.84,-144.83 -19.25,-207.16 -0.34,-8.07 -0.61,-16.16 -0.81,-24.25 -0.62,-25.96 -0.46,-52.03 0.5,-78.17 4.41,-120.22 25.67,-242.13 65.11,-364 4.3,-13.25 8.81,-26.5 13.52,-39.75 4.72,-13.25 9.63,-26.41 14.72,-39.51 46.88,-120.39 109.58,-234.16 185.82,-340.29 16.58,-23.07 33.8,-45.77 51.63,-68.11 82.03,-102.74 177.1,-197.58 282.91,-283.48 23.02,-18.68 46.53,-36.93 70.53,-54.77 110.41,-81.96 231.06,-154.76 359.69,-217.36 27.97,-13.62 56.3,-26.74 85,-39.38 131.99,-58.11 271.46,-105.77 416.12,-141.96 31.42,-7.87 63.08,-15.19 94.98,-21.97 146.82,-31.15 298.36,-50.6 452.29,-57.29 33.43,-1.45 66.99,-2.3 100.61,-2.55 171.47,4.12 319.54,7.67 547.03,51l0 0c-156.2,-18.72 -317.71,-38.07 -544.78,-27.68z"/>
     <path fill="#CDEAFB" fill-rule="nonzero" d="M3237.82 1643.85c-27.01,13.57 -53.99,27.64 -80.93,42.18 -124.01,66.93 -247,143.85 -367.02,228.95 -26.08,18.49 -52.02,37.36 -77.79,56.6 -118.64,88.55 -233.92,184.9 -343.95,287.24 -23.91,22.26 -47.59,44.79 -70.99,67.58 -107.64,104.86 -209.59,215.32 -303.96,329.54 -20.52,24.85 -40.69,49.87 -60.47,75.05 -90.96,115.79 -173.93,234.99 -247,355.78 -15.88,26.25 -31.29,52.6 -46.22,79 -68.65,121.38 -126.98,243.97 -173.08,365.95 -5,13.26 -9.87,26.51 -14.59,39.75 -4.72,13.25 -9.26,26.41 -13.64,39.5 -40.23,120.28 -65.88,233.4 -77.86,338.35 -2.62,22.8 -4.57,45.25 -5.91,67.28 -6.08,101.36 1.3,194.33 21.22,277.94 4.32,18.18 9.26,35.93 14.77,53.21 25.34,79.49 63.02,149.41 112.16,208.77 7.83,9.46 15.96,18.66 24.38,27.59l-59.39 -65.13 -26.62 -30.99c-0.56,-0.65 -1.11,-1.31 -1.64,-1.97 -53.28,-63.97 -94.68,-138.01 -123.19,-221.05 -6.2,-18.06 -11.78,-36.53 -16.76,-55.42 -22.86,-86.88 -32.62,-182.53 -28.3,-285.86 0.93,-22.46 2.53,-45.3 4.81,-68.47 10.49,-106.63 35.28,-220.69 75.35,-341.16 4.36,-13.09 8.9,-26.27 13.61,-39.52 4.73,-13.24 9.6,-26.49 14.64,-39.73 46.23,-121.8 105.42,-243.43 175.57,-363.15 15.26,-26.03 31.05,-51.96 47.31,-77.79 74.83,-118.81 160.19,-235.35 254.11,-347.87 20.42,-24.47 41.23,-48.74 62.44,-72.82 97.54,-110.71 203.2,-217.03 314.98,-317.27 24.31,-21.8 48.9,-43.3 73.78,-64.49 114.35,-97.5 234.43,-188.52 358.21,-271.35 26.89,-18 53.96,-35.61 81.18,-52.81 125.34,-79.2 253.96,-149.82 383.9,-210.15 28.22,-13.11 56.51,-25.74 84.83,-37.84 152.36,-65.18 305.92,-115.78 457.51,-149.06 -143.95,41.77 -290.12,100.63 -435.45,173.64z"/>
     <path fill="#CDEAFB" fill-rule="nonzero" d="M3473.23 1806.21c-13.05,23.21 -26.18,46.82 -39.42,70.82 -60.89,110.46 -123.65,228.9 -187.16,353.01 -13.79,26.95 -27.62,54.17 -41.47,81.63 -63.76,126.41 -128.04,257.95 -191.72,392.25 -13.83,29.21 -27.65,58.53 -41.43,87.97 -63.36,135.4 -125.86,273.06 -186.41,410.62 -13.17,29.9 -26.24,59.81 -39.22,89.68 -59.65,137.42 -117.09,274.22 -171.24,408.05 -11.77,29.09 -23.38,58.05 -34.82,86.85 -52.66,132.42 -101.75,261.38 -146.18,384.52 -4.83,13.38 -9.6,26.68 -14.33,39.93 -4.72,13.24 -9.35,26.35 -13.91,39.31 -41.89,119.14 -76.77,225.88 -104.77,319.8 -6.08,20.4 -11.84,40.23 -17.28,59.41 -25.02,88.32 -43.16,163.68 -54.56,225.69 -2.47,13.48 -4.64,26.34 -6.49,38.56 -8.46,56.18 -10.22,98.88 -5.38,127.69 1.06,6.27 2.43,11.87 4.1,16.82 4.32,12.74 10.69,21.09 19.12,24.97l-80.11 -38.31c-9.35,-7.99 -21.83,-19.12 -28.5,-29.44 -3.09,-5.62 -5.82,-11.88 -8.21,-18.77 -10.98,-31.76 -14.7,-77.09 -10.91,-135.5 0.82,-12.71 2,-26.02 3.54,-39.96 7.05,-64.09 21.66,-141.14 44.04,-230.72 4.87,-19.46 10.09,-39.53 15.71,-60.17 25.77,-94.97 59.37,-202.33 101.03,-321.59 4.53,-12.96 9.15,-26.08 13.88,-39.31 4.71,-13.26 9.5,-26.56 14.35,-39.93 44.67,-123.02 95.05,-251.36 149.91,-382.72 11.93,-28.57 24.07,-57.28 36.42,-86.1 56.76,-132.58 117.75,-267.68 181.75,-403.01 13.9,-29.42 27.97,-58.87 42.15,-88.29 65.24,-135.32 133.22,-270.36 202.72,-402.83 15.12,-28.8 30.3,-57.48 45.53,-86 70.11,-131.23 141.45,-259.39 212.83,-382.16 15.51,-26.67 31.01,-53.09 46.52,-79.22 71.34,-120.35 142.46,-234.81 212.1,-341.1 15.13,-23.07 30.18,-45.77 45.16,-68.05 80.57,-119.89 158.8,-227.92 232.7,-320.4 -62.63,97.88 -129.9,211.13 -200.04,336z"/>
     <path fill="#CDEAFB" fill-rule="nonzero" d="M3757.3 1882.08c3.83,27.72 7.39,55.8 10.71,84.2 15.27,130.81 25.19,268.68 29.9,410.99 1.02,30.92 1.81,62.04 2.35,93.34 2.45,144.1 -0.27,292.07 -8.01,441.32 -1.68,32.45 -3.6,64.96 -5.76,97.5 -9.92,149.67 -24.81,300.04 -44.56,448.51 -4.29,32.28 -8.82,64.47 -13.56,96.54 -21.84,147.5 -48.51,292.53 -79.81,432.45 -6.81,30.43 -13.83,60.61 -21.09,90.53 -33.32,137.59 -71.29,269.52 -113.72,393.17 -4.61,13.45 -9.28,26.79 -13.99,40.03 -4.73,13.25 -9.47,26.33 -14.24,39.23 -43.89,118.6 -89.91,222.37 -137.22,311.12 -10.29,19.29 -20.64,37.88 -31.04,55.76 -47.84,82.21 -96.79,149.35 -146,201.26 -10.69,11.29 -21.41,21.85 -32.11,31.7 -49.28,45.28 -98.65,75.27 -147.25,89.81 -10.56,3.17 -21.09,5.59 -31.58,7.29 -18.18,2.94 -36.21,3.69 -54.07,2.22l-87.96 -9.53 -8.15 -1.07c17.75,2.35 35.9,1.6 54.39,-2.23 8.99,-1.87 18.05,-4.45 27.19,-7.77 42.01,-15.27 85.52,-45.92 129.78,-91.75 9.62,-9.97 19.29,-20.64 28.98,-32.04 44.55,-52.43 89.7,-120.01 134.73,-202.53 9.79,-17.93 19.58,-36.58 29.34,-55.94 44.94,-89 89.6,-192.93 133.24,-311.56 4.74,-12.9 9.47,-25.98 14.19,-39.23 4.72,-13.24 9.4,-26.59 14.04,-40.02 42.68,-123.64 82.01,-255.41 117.72,-392.74 7.77,-29.86 15.36,-59.97 22.77,-90.33 34.12,-139.62 64.56,-284.23 91.06,-431.21 5.76,-31.96 11.33,-64.03 16.72,-96.19 24.76,-147.92 45.52,-297.63 62.02,-446.58 3.57,-32.38 6.96,-64.73 10.13,-97.02 14.62,-148.48 24.92,-295.62 30.61,-438.81 1.23,-31.11 2.25,-62.03 3.05,-92.74 3.68,-141.38 2.71,-278.25 -3.2,-408.03 -1.28,-28.17 -2.81,-56.03 -4.55,-83.52 -9.41,-147.85 -25.63,-285.24 -49.08,-408 35.52,124.09 63.45,262.78 84.03,411.87z"/>
     <path fill="#CDEAFB" fill-rule="nonzero" d="M4020.46 1849.98c19.45,25.8 38.49,52 57.14,78.53 85.83,122.19 163.08,251.86 230.98,386.46 14.75,29.24 29.06,58.7 42.92,88.38 63.81,136.61 118.11,277.63 162.2,420.55 9.58,31.07 18.67,62.24 27.29,93.47 39.59,143.64 68.78,288.63 86.83,432.47 3.93,31.29 7.33,62.5 10.2,93.64 13.18,143.23 15.05,284.78 4.89,422.13 -2.21,29.86 -4.99,59.53 -8.35,88.97 -15.44,135.41 -43.07,266.07 -83.65,389.5 -4.41,13.43 -8.98,26.75 -13.7,40 -4.72,13.24 -9.56,26.33 -14.54,39.25 -45.74,118.83 -102.08,223.87 -167.29,314.8 -14.18,19.77 -28.78,38.87 -43.78,57.31 -68.97,84.79 -146.46,155.42 -230.67,211.6 -18.33,12.22 -36.96,23.75 -55.89,34.6 -36.99,21.19 -75.13,39.76 -114.28,55.69 -42.97,15.76 -99.78,38.13 -143.26,52.37 56.97,-18.81 112.06,-43.62 164.84,-74.39 18.07,-10.53 35.87,-21.75 53.4,-33.69 80.55,-54.85 155.04,-124.39 221.82,-208.37 14.51,-18.27 28.67,-37.21 42.44,-56.83 63.33,-90.26 118.59,-194.9 164.13,-313.66 4.96,-12.92 9.79,-26 14.52,-39.25 4.71,-13.23 9.3,-26.57 13.73,-40 40.77,-123.5 69.48,-254.55 86.79,-390.65 3.77,-29.58 7,-59.41 9.69,-89.45 12.38,-138.15 13.49,-280.78 3.97,-425.34 -2.06,-31.43 -4.64,-62.97 -7.71,-94.54 -14.09,-145.3 -38.67,-291.96 -73.09,-437.47 -7.47,-31.64 -15.41,-63.23 -23.82,-94.72 -38.66,-144.91 -87,-288.09 -144.4,-427.03 -12.46,-30.18 -25.35,-60.18 -38.66,-89.94 -61.29,-137 -131.49,-269.21 -209.95,-394.08 -17.05,-27.12 -34.47,-53.9 -52.27,-80.3 -95.83,-142.06 -202.73,-273.33 -319.66,-389.78 126.45,113.01 242.58,240.92 347.19,379.77z"/>
     <path fill="#CDEAFB" fill-rule="nonzero" d="M4166.12 1719.74c28.09,18.08 55.71,36.61 82.82,55.56 124.9,87.27 239.41,183.61 342.29,286.94 22.35,22.44 44.14,45.22 65.39,68.31 97.76,106.24 183.62,219.04 256.38,336.32 15.83,25.5 31.03,51.21 45.59,77.12 66.99,119.12 120.59,242.3 159.57,367.43 8.49,27.22 16.27,54.52 23.34,81.9 32.57,125.9 50.24,253.32 51.78,380.2 0.33,27.59 -0.1,55.15 -1.3,82.66 -5.54,126.56 -27.46,252.12 -67.02,374.63 -4.29,13.33 -8.8,26.61 -13.53,39.84 -4.71,13.26 -9.61,26.39 -14.7,39.41 -6.33,16.22 -12.95,32.26 -19.83,48.12 -30.73,63.72 -71.39,148.89 -105.53,210.86 32.77,-57.47 61.69,-117.9 86.4,-181.22 5.08,-13.01 9.98,-26.13 14.69,-39.38 4.72,-13.25 9.24,-26.52 13.55,-39.87 39.62,-122.64 61.93,-248.98 68.14,-376.88 1.35,-27.8 1.93,-55.68 1.78,-83.61 -0.76,-128.48 -17.36,-258.04 -48.6,-386.56 -6.79,-27.95 -14.28,-55.84 -22.44,-83.67 -37.56,-127.98 -89.5,-254.46 -154.64,-377.3 -14.17,-26.7 -28.94,-53.25 -44.35,-79.59 -70.8,-121.16 -154.53,-238.24 -249.99,-349.09 -20.74,-24.07 -42.02,-47.87 -63.86,-71.35 -100.52,-108.05 -212.49,-209.43 -334.73,-302 -26.55,-20.11 -53.59,-39.8 -81.09,-59.04 -147.97,-103.57 -309.59,-194.45 -482.96,-269.27 148.5,62.68 302.04,127.49 492.85,249.53z"/>
     <path fill="#CDEAFB" fill-rule="nonzero" d="M4160.33 1532.87c27.75,7 55.04,14.53 81.82,22.6 123.34,37.17 236.38,85.69 337.87,144.15 22.05,12.7 43.55,25.86 64.5,39.48 96.41,62.69 181.03,134.99 252.66,215.47 15.56,17.5 30.53,35.39 44.86,53.65 60.04,76.52 109.07,159.56 146.16,248.07l39.61 100.93 22.43 64.89c-6.34,-19.39 -13.19,-38.59 -20.56,-57.6 -39.47,-101.79 -93.65,-197.73 -161.28,-286.31 -14.7,-19.26 -30.05,-38.17 -46.01,-56.72 -73.43,-85.27 -160.05,-162.88 -258.61,-231.25 -21.41,-14.86 -43.38,-29.27 -65.91,-43.25 -103.71,-64.32 -219.08,-119.08 -344.9,-162.79 -27.32,-9.5 -55.14,-18.47 -83.43,-26.91 -152.22,-45.37 -318.3,-75.2 -496.27,-87.07 146.79,7.81 298.59,15.88 487.06,62.66z"/>
  </g>
 </g>
</svg>
