<svg version="1" xmlns="http://www.w3.org/2000/svg" width="682.667" height="682.667" viewBox="0 0 512.000000 512.000000"><path d="M230.5.7c-35.9 4.2-60.3 11.2-89 25.3-50.4 24.7-90 64.1-114.9 114C8.4 176.6 0 212.4 0 253c0 89.7 45.9 170.7 123.2 217.5 25.8 15.6 56.4 26.9 88.3 32.6 15.3 2.7 50.7 3.7 68 1.9 33.2-3.4 71.5-15.6 98.3-31.3l6.2-3.6 57.6 20.9c33.4 12.2 59.1 21 61.1 21 4.8 0 9.3-4.5 9.3-9.3 0-2-8.8-27.5-20.8-60.7l-20.8-57.2 9.1-18.2c36.5-72.9 36.3-156.3-.7-228.8C440.5 62.6 366.5 11.3 282.1 1.5 270.9.2 238.9-.3 230.5.7zM290.9 24C356.2 35.4 411 71 447.2 125.5c22.3 33.6 35.2 72.3 37.7 113.1 2.9 46.4-8 92.2-31.3 131.8-3.1 5.2-5.6 10.7-5.6 12.2 0 1.4 6.6 20.7 14.6 42.8 8 22 16.1 44.2 17.9 49.3l3.4 9.2-9.2-3.4c-5.1-1.8-27.3-9.9-49.3-17.9-22.1-8-41.5-14.6-43.1-14.6-1.6 0-4.9 1.3-7.4 2.8-27.1 17.1-63.3 29.5-97.1 33.1-12.5 1.4-37.1 1.4-49.6 0-68.2-7.4-130.5-45.4-168.7-102.8C20.3 322 10.4 247.5 33 179.8 61.3 94.7 135.6 33.9 225.3 22.5c16.4-2.1 49.4-1.3 65.6 1.5z"/><path d="M228.1 77.6c-20.3 2.9-38 8.7-57.1 18.5-14.4 7.4-27.5 16.7-27.5 19.4-.1 1.1-1.4 4-3 6.5-4.1 6.5-7.6 17.2-8.2 25.6-.5 6.1-1 7.7-3.1 9.6l-2.5 2.3.6-7.5c.4-4.1 1.6-10.3 2.8-13.7 1.9-5.8 7.6-15.7 11-19.3 1.7-1.8 2.2-4 1-4-1.4 0-3.2 2.6-2.3 3.5.4.5.2.5-.5.1-1.7-.9-14.5 11.5-23.7 22.8-18.6 23-30.8 49.1-36.8 78.8-2 9.8-2.3 14.2-2.2 33.3 0 19.9.2 23.2 2.7 34.6 3.5 16.7 8.5 30.8 16.3 45.9 6.8 13.3 19.4 31.7 21.4 31.2.6-.1.9.2.5.8-.8 1.2 13.9 16.5 23 24 22.5 18.3 48.8 30.8 78.5 37.2 9.2 1.9 13.4 2.2 33.5 2.3 20.1 0 24.4-.3 34.3-2.3 56.1-11.4 101.9-46.8 126.2-97.6 16.9-35.2 21.8-74.3 14-112.3-1.1-5.2-2-9.7-2-10 0-.2-.4-.1-1 .2-.6.3-.7-.1-.4-.9.9-2.2-4.1-16.5-10.3-29.6-12.5-26.6-32.8-50.8-57.5-68.6-7.9-5.6-8.4-5.9-13.7-5.6-7.4.3-14.4 1.9-21.1 4.9-5.9 2.6-6 2.2-.3-1.4 2.1-1.3 3.1-2.2 2.3-2-.8.2-4-.8-7-2.3-3-1.5-7.4-3.3-9.7-4-3.8-1.2-5.9-3-3.5-3 1.8 0 11.9 3.8 16.9 6.3 5 2.6 5.2 2.6 9.8 1.1 2.9-1.1 6.6-1.5 10-1.2 3 .3 5.2.1 5-.2-1.1-1.9-24.3-12.4-35-15.9-20.4-6.7-36-9.2-58-9-7.7.1-18.2.7-23.4 1.5zm21.2 1.9c6.4 1.7 14 5.3 20.6 9.8 3.9 2.7 5.1 3 10.9 2.8 8.6-.3 17.2.9 17.2 2.3 0 .8-3.1 1-10.2.8l-10.3-.3 4 3.8c4.2 3.9 2.1 2.7-2.6-1.5-2.6-2.2-2.7-2.3-7.5-.6-2.7.9-6.1 2.5-7.5 3.5-1.5 1-3.7 2.3-5 2.8-1.3.5-1.8 1-1.1 1 1 .1 1 .7-.2 2.8-.7 1.6-1.7 4.3-2.1 6-.6 2.9-1 3.3-4.1 3.3-2.9 0-3.4-.4-3.4-2.3 0-1.2.9-4.1 1.9-6.3 1.6-3.5 2.5-4.3 5.7-4.9 2.3-.5 3.2-1 2.2-1.2-3-.7-2-2.1 3-4.6 6.3-3.2 9.8-4 12.2-2.7 1.1.6 2 .9 2 .6 0-1-14.8-9.6-19.9-11.6l-5.5-2.1-8.1 2.5c-4.4 1.4-10.9 4.4-14.3 6.6-3.5 2.2-7.5 4-9 4-2.5 0-2.4-.2 2.2-3.5 5.6-4 13.4-7.1 22.1-8.9l6-1.3-5-1c-2.9-.6-4-1.1-2.5-1.2 1.4 0 5.2.6 8.3 1.4zm21.5.2c-3.2.2-8.4.2-11.5 0-3.2-.2-.6-.3 5.7-.3s8.9.1 5.8.3zm28.9 5.3c.8 1.5 1.2 6 1.2 11.5l-.1 9-1-6.3c-.8-5.7-2-10-4.3-15.6-1.2-2.9 2.7-1.6 4.2 1.4zm-104.9 3.6c-.3.3-3.5 2.6-7 5.1-6 4.3-6.1 4.5-2.8 3.9 18.4-3.5 39.2-3.2 58.3.8 6.6 1.3 12.2 2.8 12.5 3.2.4.4-.9.4-2.8 0-18.5-3.7-21.3-4-39.5-4-25.6 0-41 3.4-60.3 13-4.8 2.4-7.8 3.6-6.7 2.8 3.8-3 17.6-9.5 26.1-12.3 4.6-1.6 8.4-3.2 8.4-3.6-.1-.9 4-4 9.2-7 4.2-2.4 5.7-3 4.6-1.9zm22.2 10c0 .3-.8 1.8-1.9 3.2-2.2 3.2-5.1 12.4-5.1 16.4 0 1.6-.5 2.8-1.2 2.8s-2.4.3-3.7.7c-2.4.6-2.4.5-1.7-4.7 1.4-10.2 6.4-19 10.9-19 1.5 0 2.7.3 2.7.6zm-41 7.6c-3.8 5.5-6.6 13.6-7.6 21.6-.6 5.7-1 6.4-3.7 7.8l-3 1.6.7-6.1c1-9 3.1-15 7.5-21.8 3.4-5.3 5-6.6 8.3-7.2.4 0-.6 1.8-2.2 4.1zm86.7-2.6c-.3.3-1.2.4-1.9.1-.8-.3-.5-.6.6-.6 1.1-.1 1.7.2 1.3.5zm70.2 6.5c4.8 3.8 13.6 14.7 12.7 15.7-1.3 1.2-4.7-1.5-8.1-6.4-2.2-3.1-5.8-7.1-8.2-8.9-3.7-2.8-4.6-4.5-2.3-4.5.4 0 3.1 1.8 5.9 4.1zm21.1.4c1.3 1.4 2.1 2.5 1.8 2.5-.2 0-1.5-1.1-2.8-2.5-1.3-1.4-2.1-2.5-1.8-2.5.2 0 1.5 1.1 2.8 2.5zm15.2 15.4c5.5 6.9 10.6 15.1 9.3 15.1-.4 0 2.9 2.7 7.2 5.9 4.3 3.3 9.3 7.5 11.2 9.5 1.9 1.9 3.9 3.2 4.4 2.9.6-.3.7-.1.3.5-.3.5.4 2.3 1.7 3.9 4.8 6 5.3 6.8 3.8 5.8-1.1-.6-1.3-.4-.8.7 3 7.9 3.4 26.2.6 33.7l-1.2 3.4-1.4-2.8c-1.3-2.4-1.3-3.4.2-9 1.7-6 1.7-17.2.1-26.9-.5-3.5-8.1-11.4-18.2-19.2-6.9-5.3-10.9-7.3-6.6-3.4 2.7 2.6 3.6 7.2 3 16.9-.6 9.7-1.2 11-4.3 8.1-2.1-2-2.1-2.3-.8-7.3 1-3.5 1.2-7.2.8-11.2-.4-3.3-.8-6.8-.8-7.8-.2-3-22.8-14.3-32.2-16.1l-3-.6 2.7 1.1c3.1 1.2 4.4 5.7 3.4 11.4-.8 4-.9 4-4 2-2.1-1.4-2.3-2.2-2.1-8.5.2-5.8-.1-7-1.4-7.1-.9 0-1.1-.3-.5-.5 1.8-.7 19.2 5.5 27.9 10 9.1 4.6 10.6 5.3 8.5 3.4-.9-.7-2.9-3.6-4.4-6.3-1.6-2.8-4.7-7.3-6.9-10-2.2-2.8-4.8-5.9-5.6-7l-1.6-2 2.4 2c1.3 1.1 5.1 5.3 8.3 9.4zm-112.6-5.5c0 2 1.2 5.2 2.7 7.5 1.5 2.2 2.7 4.2 2.7 4.5 0 .2-1.4.9-3 1.5-2.9.9-3.2.8-5.5-2.7-1.3-2-3.1-5.6-3.9-7.9l-1.5-4.2 3.7-.4c3.1-.3 2.9-.4-1.3-.5-5.5-.2-20.7 1.9-32.6 4.4l-7.6 1.6.9 4.2c1.3 5.8 4.2 12 8.8 18.6l3.9 5.8-2.5 1.7c-2.4 1.6-2.7 1.5-4.5-.1-4.5-4-12.9-21.1-12.9-26 0-.7 1.2-1.7 2.8-2.3 6.5-2.6-4.6.3-14.2 3.6-31.8 11-57.4 26.9-78.2 48.6-11.1 11.5-21.4 26.1-26.9 38.1l-3.5 7.7 1.9 7.9c3.6 14.2 11.3 29.7 21.8 43.2 3.9 5.1 4.3 6.2 3.6 8.5l-.9 2.7-4.6-5.7c-12.7-16.2-24-42.6-22.4-52 1.1-6.3-2.5 4.3-4.5 13.3-1.8 8.1-1.9 8.2-1.3 2.5.3-3.3 1.6-10.1 2.8-15 1.3-5 2.2-10.4 2-12-.3-1.7 0-5 .5-7.5l1-4.5-.1 4c-.1 7.2.2 7.1 4.5-1.5 2.4-4.7 6.1-11.2 8.2-14.5 3.5-5.4 3.9-6.5 3.6-11.7-.3-6.3 2.7-18.8 6-24.6 1.1-2.1 1.7-2.8 1.3-1.7-2.7 8.1-3.6 12-4.1 19-.3 4.4-1 8.9-1.6 10-.8 1.8-.8 1.8.6.5.8-.8 3.8-4.2 6.6-7.5 16.3-19 44.9-37.7 73.4-48 20.3-7.3 45.9-12.3 64.2-12.4l10-.1.1 3.4zm21.1-2.8c-.3.3-1.2.4-1.9.1-.8-.3-.5-.6.6-.6 1.1-.1 1.7.2 1.3.5zm57 7c-.3.3-1.2.4-1.9.1-.8-.3-.5-.6.6-.6 1.1-.1 1.7.2 1.3.5zm4 1c-.3.3-1.2.4-1.9.1-.8-.3-.5-.6.6-.6 1.1-.1 1.7.2 1.3.5zm-71.2 7.3c-30.1 14.6-56.4 33.9-83.5 61-26.9 27-46.9 55-59.9 84-4.5 10.1-5.7 13.6-4.4 12.8.6-.4 2.5 1 4.4 2.9 10.5 11 30 25.5 48.5 36.1 11.8 6.8 12 6.9 11.1 9.6l-.9 2.8-7.6-4.2c-24-13.1-58.3-40-56.6-44.4.3-.8.4-1.5.1-1.5-.7 0-4.4 12.4-6.2 20.9-1.5 7.4-2 13.9-.9 12.8.4-.4 3.4 1.9 6.8 5 13.6 12.6 30.7 24.9 47.3 33.9 7.6 4.2 9.4 6 7.6 7.7-.8.9-13.2-5.9-25.3-13.8-10.9-7.2-22.7-16.6-31.7-25.3l-6.3-6v6.1c.1 7.6 2.2 19.9 4.4 25.1 2 4.9 1.3 5.9-1 1.4-6.7-12.5-8.7-20.6-8.7-35.8.1-18.5 4.6-35.5 15.3-57.8 23.2-48.1 70.5-95.5 124.2-124.1 9.2-5 32.2-15 34.3-15.1.6 0-4.4 2.6-11 5.9zm22.5 3.8c-12.7 21.4-38.4 71.8-54.2 106.7-18.8 41.4-42.8 100.9-41.4 102.4.3.3.6.1.6-.4.1-3.3 1.8-3.3 9.6 0 17.4 7.3 43.5 14.9 61.1 17.7 8.9 1.4 9.8 1.9 8.8 4.8-.8 2.7-2.1 2.7-19.5-.9-18.7-3.8-38.6-10.1-58.2-18.4l-3.7-1.6-4.6 14.3c-6.5 19.9-10.5 37-10.5 44.4 0 3.5-.4 6.3-.9 6.3-.6 0-2.3-1.1-3.8-2.4-2.7-2.4-2.8-2.7-2.7-12.3.4-41.8 55.1-165.2 110.1-248.6 5.7-8.6 10.7-15.7 11-15.7.3 0-.5 1.7-1.7 3.7zm-13 7.7l4.1 2.3-1.9 2.3-1.9 2.4-4.4-2.6c-4.9-2.9-12.9-9.5-12.9-10.7 0-.4 1-1.3 2.3-1.8 1.8-.9 2.9-.5 6.4 2.4 2.3 1.8 6.1 4.4 8.3 5.7zm71.4 2c34 24.4 58.6 56.4 69.5 90.8 3.6 11.3 6.1 24.7 6.1 32.4 0 6 1.5 8 2.5 3.3.4-1.7.9-2.8 1.2-2.5.8.7-1.8 9.6-2.7 9.6-.4 0-1 3.9-1.3 8.7-.4 4.9-1.3 11.3-2.1 14.3l-1.4 5.5.6-5.5c1.4-11.3.7-38.1-1.1-47-6.9-32.6-24.6-64-50.7-90-9.7-9.6-26.7-23.7-27.6-22.8-.2.3.7 1.3 2.1 2.2 2.4 1.6 2.4 1.7.9 4.2-.9 1.4-3.6 3.6-6.1 5l-4.3 2.6-2-2.3c-2.4-3-2.5-3.6-.2-4.3 1-.4 3.5-2.3 5.6-4.5l3.8-3.8-3.6-2.3c-2-1.2-3.6-2.4-3.6-2.6 0-.8 5.1 2.4 14.4 9zm-18.9 6.6c14.5 19.2 27.8 44.6 37 70.6 2.5 7.1 4.3 11.7 4.1 10.3-.5-2.2.1-2.8 4.7-5.1 7.5-3.7 16.7-10.9 20.6-16.2 1.9-2.5 3.8-4.6 4.1-4.6.4 0 1.2 1.1 1.8 2.4.9 2.1.7 3-1.7 6.3-1.5 2.1-5.3 6.1-8.3 8.9-5.9 5.3-19 12.9-20.3 11.6-.4-.4-.5.6 0 2.3 3 12.5 5.4 24.5 6 30.1.4 3.6 1 6.2 1.4 5.6.3-.5 3.8-2.5 7.6-4.5 12-6 23.9-16.2 28.3-24.2 1-1.9 1.1-1.8 1.7.8.9 3.6-.6 6.5-6.9 13.4-5.7 6.3-14.5 12.8-23.3 17.2l-6.2 3.1-.3-2.3c-.2-1.2-.3 7.9-.3 20.3 0 25.3-1.1 34.2-7.1 54.8l-.7 2.3 5.8-2.5c10.5-4.7 17.9-9.9 27.2-19.1 10-9.9 9.6-7.4-.6 3.7-7.4 8-15.5 14-25.9 19.2-7.1 3.6-7.4 3.6-6.8 1.4.7-2.7.8-2.9-5.5 11-2.1 4.6-5.9 11.4-8.4 15.2-5.2 7.9-20.2 22.4-26.6 25.9l-4.4 2.4 4.5-3.9c15.3-13.1 26.6-30.7 33.4-52.2 2.9-9.1 6.6-26.5 6.6-30.8 0-2.4-.2-2.6-1.2-1.2-3.8 5-48.3 10.6-66.1 8.4-4.9-.6-5.7-1-5.8-2.9 0-1.2-1.4 2.7-3 8.8-15.1 56.4-35.7 89.1-56.4 89.4l-4 .1 4-1.9c19.7-9 41.6-59.2 54.9-126.1 4.7-23.4 10-61.4 8.1-57.4-1.4 2.7-36.1-6-52.2-13.1l-5.2-2.3 1.2-3.2c.8-2.1 1.7-2.9 2.7-2.6.8.3 5.7 2.1 10.8 4.1 10.5 4 25.3 8.2 35.7 9.9 6.1 1.1 7 1.5 7.5 3.7.6 2.6 3-23.9 3-33.3v-5.7l-3.7-.7c-9.9-1.7-24.4-5.9-35.6-10.3-2.7-1-2.7-1.2-1.3-4l1.5-2.9 8.8 3.3c4.8 1.9 13.6 4.4 19.5 5.7 10.5 2.3 10.7 2.4 11.2 5.3.6 3.7-.2-47.1-.9-54-.4-4.7-.3-4.6 1 1.5.8 3.6 1.5 8.1 1.6 10 .1 2.6.3 3 .7 1.5.6-1.6 1.6-2 4.7-2 2.2 0 6.3-.4 9.1-.8 4.8-.7 5.3-.6 6.9 1.9.9 1.4 1.5 2.8 1.2 3-.2.3-4.3 1-9.1 1.6-7 1-9.2.9-10.8-.1-2.1-1.3-2.1-1.2-1.3 6.1.4 4 1.1 13.6 1.5 21.3.4 7.7.8 12.5.8 10.7l.2-3.2h10.8c5.9 0 13.8-.7 17.7-1.5 8.9-1.9 8.2-2 10 1.5l1.5 2.9-4.1 1.1c-7.7 2.1-15.3 3-25.5 3h-10.1l-.6 13.7c-.7 14.3-.7 29.3 0 25.7.4-2 1.1-2.2 17.6-2.7 11.7-.4 19.9-1.2 25.7-2.5 8.9-2.1 9.9-1.9 10.1 2.3 0 1.1.3 1.5.5.8.7-1.7-6-23.8-11.3-37.3-8-20.3-19.1-40.8-31-57-3-4.1-4-5.9-2.3-4 1.7 1.9 6 7.3 9.5 12zM170 145.2c1.4 6.9 8.8 21.8 14.1 28.7l4.1 5.4-2.3 1.8c-1.3 1-2.7 1.9-3.1 1.9-1.1 0-8.1-9.7-11.6-16-3.1-5.5-8.2-19.5-8.2-22.4 0-1.1 3.6-4.1 5.7-4.6.1 0 .6 2.4 1.3 5.2zm129.1 7.9c4.5 1 4.9 1.3 4.9 4s-.2 2.8-3.2 2.2c-4.3-.8-18.8-5.3-18.8-5.8 0-.2.5-1.5 1.1-2.8l1.1-2.4 5 1.9c2.7 1 7.2 2.3 9.9 2.9zM235.5 164c3.8 3.3 10.9 8.3 15.6 11.1l8.7 5.1-1.6 2.9-1.7 2.8-5.5-3.1c-7.4-4.1-16.4-10.5-22.8-16.3-5-4.5-5.2-4.8-3.6-6.6.9-1.1 2.2-1.9 2.9-1.9.6 0 4.3 2.7 8 6zm-94.3 23.6c2.2 4.5 6.5 11.5 9.5 15.4 5.2 7 5.3 7.3 3.8 9.6-.8 1.3-1.9 2.4-2.4 2.4-1.2 0-7.9-9-12.9-17.3-4.3-7.2-9.8-21.2-10.8-27.6-.5-3.3-.3-4.1 1.7-5.4l2.3-1.7 2.3 8.2c1.3 4.5 4.2 11.9 6.5 16.4zm236.6-8.3c-1.9 3.7-10.5 11.2-16 14l-5.2 2.7-1.7-3.2-1.6-3.1 5-2.6c2.8-1.3 7.6-5 10.6-8.2l5.6-5.7 2.2 2c1.8 1.7 2 2.4 1.1 4.1zm-176.5 13.3c7.6 6.9 20.3 15.9 30.2 21.4 3.3 1.8 6.2 3.5 6.4 3.6.5.4-2 6.4-2.6 6.4-.3 0-3.1-1.4-6.2-3.2-10.8-6.1-25.7-16.7-33.1-23.7l-7.5-7 2.5-2c1.4-1.2 2.7-2.1 2.8-2.1.2 0 3.6 2.9 7.5 6.6zm-95.4 7.8c3.5 12.6 12.3 29.3 22.3 41.8 1.9 2.5 2 3 .8 5.3-.7 1.4-1.6 2.5-1.9 2.5-1.1-.1-9.7-12.3-14.4-20.5-5.1-8.8-9-18.6-11.1-27.6-1.2-5-1.2-6 .1-7.9.8-1.2 1.6-2 1.8-1.8.1.2 1.2 3.8 2.4 8.2zm317.6 34.3c-1.6 7.1-3 9.1-3.7 5.5-.2-.9.4-4.3 1.4-7.5 1-3.3 2.1-9.1 2.6-13l.7-7.2.3 7.5c.2 4.3-.4 10.5-1.3 14.7zM189 240.1c7.9 5.6 25.5 16.2 28.4 17.2 1.1.4-1.1 6.7-2.3 6.7-1.2 0-18.2-10-25.8-15.2-8-5.3-23.1-17.7-27.7-22.7l-3-3.1 2.4-2.5 2.3-2.4 8.4 7.9c4.6 4.3 12.4 10.7 17.3 14.1zm-42 21.8c13.8 12.4 28.6 22.9 45.2 32 7.6 4.2 7.7 4.2 6.6 7.2-1.2 3.4-1 3.4-5.1 1.3-15.2-7.9-38.7-24.4-52.2-36.7-6.8-6.3-6.9-6.5-5.6-9.1.8-1.4 1.6-2.6 1.8-2.6.3 0 4.4 3.6 9.3 7.9zm92.1 5.2c13.1 5.2 30.9 10.3 45.5 13 10.8 2.1 11.5 2.4 11 4.3-.3 1.2-.6 2.7-.6 3.4 0 1.5-2.2 1.3-18.3-2-18.1-3.6-50.7-15-50.7-17.6 0-1.4 1.8-5.2 2.4-5.2.2 0 5 1.8 10.7 4.1zm-160.4 4.1c-.3.8-.6.5-.6-.6-.1-1.1.2-1.7.5-1.3.3.3.4 1.2.1 1.9zM89.4 295c2.1 3.6 6.2 9.8 9.3 13.8 3.2 4.3 5.3 8.1 5.1 9.2-.6 4.1-15.9-19.5-20.7-32-4.3-10.9-4.8-14.9-.8-5.5 1.8 4.5 5.1 11 7.1 14.5zm331.6-7.6c0 3.4-8.2 13.9-15.6 20-6.3 5.2-19.5 13.3-23.3 14.3-1.8.4-2.1.1-2.1-2.3 0-2.6.7-3.2 5.8-5.4 9-3.9 19.3-11.3 27-19.5 4-4.1 7.2-8 7.2-8.5 0-.6.2-1 .5-1s.5 1.1.5 2.4zM230 311c12.7 4.6 37.2 11.1 49.3 13.1l7.8 1.2-.7 3.1c-.3 1.7-.7 3.2-.8 3.3-.3.4-17.8-2.9-27.2-5.2-18.5-4.4-49.4-15.4-49.4-17.5 0-.5.4-2 1-3.5l1-2.6 3.7 1.9c2.1 1.1 9 3.9 15.3 6.2zm-127.9 28.7c1.3 1.6 1.2 1.7-.3.4-1-.7-1.8-1.5-1.8-1.7 0-.8.8-.3 2.1 1.3zm3 4c1.3 1.6 1.2 1.7-.3.4-1-.7-1.8-1.5-1.8-1.7 0-.8.8-.3 2.1 1.3zm39.2 34.4c6.6 4.4 14.5 9.3 17.7 10.9 5.5 2.8 7.7 4.6 6.8 5.5-.7.7-18.2-9.6-27.9-16.5-10-7-26.9-21.6-26.9-23.1 0-.5 4.2 2.7 9.3 7.1 5 4.5 14.5 11.7 21 16.1zm217.6-16.2c-.8 2.4-2 3.1-6.7 4.4-16.3 4.5-42 7.1-58.9 6.1-5.7-.4-10.3-1-10.2-1.3 0-.3.4-1.4.8-2.4.6-1.7 2.4-1.9 22.1-2.1 16.7-.2 24.1-.8 33-2.4 9-1.7 18.5-4 20.7-5.1.1-.1-.3 1.2-.8 2.8zm19.1 12.5c0 .2-.8 1-1.7 1.7-1.6 1.3-1.7 1.2-.4-.4 1.3-1.6 2.1-2.1 2.1-1.3zm-183.7 5c15.5 6.2 32.5 11.2 48.6 14.3 7.5 1.4 14.2 2.7 14.8 2.9 2.2.6.2 3.4-2.4 3.4-4.6 0-26.8-4.9-38.9-8.5-9.5-2.9-33.9-11.9-35.2-13-.4-.3.9-3.5 1.5-3.5.3 0 5.5 2 11.6 4.4zm179.7-1.9c0 .8-11.3 8.1-16.7 10.9-3.2 1.6-5 2.1-4.7 1.3.2-.7 4-3 8.3-5.1 4.3-2.1 8.8-4.7 10.2-5.7 2.6-2 2.9-2.2 2.9-1.4zm-32 16c-4.1 5-41.1 10.1-63.2 8.8-8.3-.5-9.6-.8-8.9-2.1.7-1.2 4.4-1.5 21.7-1.7 20.6-.2 31.7-1.5 43.9-4.9 7.1-1.9 8-2 6.5-.1zm-152 9.8c13 4.9 26.6 8.9 40.1 11.7 5.7 1.1 11.4 2.3 12.7 2.6 1.3.2 2 .8 1.8 1.3-.6 1-16.1-1.7-28.2-4.8-16.6-4.3-40.4-13.3-40.4-15.3 0-.6.7-.7 1.8-.3.9.4 6.4 2.5 12.2 4.8zm121.7 13.3c-.3.3-1.2.4-1.9.1-.8-.3-.5-.6.6-.6 1.1-.1 1.7.2 1.3.5zm-3.8.9c-1 1-19.9 3.4-28.4 3.6-13.6.3-24.9 0-24.2-.8.4-.3 9.6-.7 20.4-.9 10.9-.2 21.8-.7 24.3-1.2 5.3-1.1 8.5-1.4 7.9-.7z"/><path d="M357.6 242.5c-8.8 2.4-21.9 3.7-35.4 3.3l-13.2-.3v4.5c0 2.5-.7 10.3-1.5 17.5-.8 7.1-1.5 13.7-1.5 14.6 0 1.4 1.9 1.6 14.3 1.8 15.4.2 33-1.7 44-4.8l6.8-1.9-.3 3.7c-.3 3.5-.4 3.6-6.8 5.3-3.6 1-11.6 2.5-17.8 3.3-11.7 1.6-36.8 2-38.8.7-.7-.4-1.4-1.8-1.7-3.2l-.4-2.5-.2 2.6c-.1 2.3-5.2 30.9-6.7 37.9l-.5 2.5 22.8-.6c22.3-.6 32.4-1.9 44.7-5.5 2.7-.8 5.1-1.4 5.2-1.4.1 0 .4.8.6 1.7.2 1 .8-3.9 1.2-10.9 1.1-17.9-.3-35.6-4.5-58.6-2.3-12.4-1.9-12-10.3-9.7z"/></svg>